<svg width="505.856" height="51" viewBox="0 0 505.856 51" xmlns="http://www.w3.org/2000/svg"><g stroke="#000"><path d="M74.917 27.401c.037.11 0 .218.037.328 0 1.272.181 2.545.69 3.635.582 1.346 1.455 2.327 2.691 3.127a3.3 3.3 0 001.673.582c.254 0 .509.073.763.109.327.11.69.11 1.09-.11.219-.072.437-.108.655-.217.946-.218 1.745-.727 2.364-1.345.69-.655 1.236-1.273 1.854-1.891.109-.182.327-.4.363-.582.437-.727.982-1.418 1.164-2.218.218-.618.545-1.2.654-1.818.255-.945.618-1.927.691-2.908.037-.8.327-1.636.436-2.473 0-.4.037-.8.037-1.2.073-.109.036-.327.109-.436a6.489 6.489 0 00.618-2.218c.036-.981 0-1.963-.29-2.836-.255-.909-.51-1.781-1.019-2.436-.436-.545-.873-.981-1.345-1.454-.291-.29-.764-.436-1.31-.473-1.199.037-2.471.255-3.562 1.091-.4.327-.764.582-1.164.873-.109.181-.29.29-.545.181-.436-.036-.873 0-1.273.4-.509.582-.981 1.2-1.272 1.855l-.873 1.745c-.218.29-.4.763-.545 1.127l-1.854 4.8c-.582 1.6-.982 3.163-.837 4.762zm3.454-4.254c.728.146 1.31.182 1.818.473.218.145.51.073.8.073.182 0 .4-.11.4-.327.327-.837.727-1.6 1.09-2.473 0-.109.037-.182.146-.254.218-.473.4-.91.546-1.382.181-.509.509-.873.763-1.309.4-.618.727-1.236 1.127-1.854.146-.218.328-.364.473-.4.255-.182.509-.218.727-.327.51-.146.91 0 1.2.327.4.4.545.836.509 1.418a41.132 41.132 0 01-.473 4.254c-.4 2.145-1.09 4.217-2.108 6.108-.91 1.709-2.182 3.127-3.564 4.363-.4.364-.909.545-1.381.764-.218.145-.51.072-.727-.073-.546-.364-.728-.873-.837-1.527-.145-.946-.363-1.89-.618-2.909-.036-.582-.218-1.127-.327-1.745 0-.4.11-.764.146-1.2.036-.4.072-.873.218-1.345 0-.182 0-.4.072-.655zM113.603 34.346a.384.384 0 00-.073.182c-.218-.037-.364-.182-.545-.291.072-.11.181-.073.29-.11-.4-.363-.763-.69-1.018-1.2-.109-.108-.218-.254-.181-.472.036-.073-.037-.218-.11-.327-.036-.146-.072-.255-.218-.364-.145-.472-.29-.945-.327-1.454-.036-.218.037-.436-.073-.654-.036-.037-.036-.073-.036-.146v-.945c.036-.218.073-.473 0-.727-.036-.182 0-.364 0-.546.073-.073.11-.182.073-.254 0-.255.073-.473.036-.691.11-.327.182-.582.218-.873.037-.29.11-.618.182-.909.037-.145.073-.29.218-.4.182-.363 0-.472.291-.836.327-.4.691-.836.836-1.345.11-.218.291-.4.473-.582.218-.145.436-.363.545-.654.11-.364.291-.691.582-.982.182-.254.327-.582.436-.909.037-.218.11-.4.182-.618a8.88 8.88 0 00.364-.873c.145-.327.29-.618.473-.872.109-.182.181-.4.218-.618.036-.073 0-.146.036-.218.182-.291.182-.619.182-.91l.109-.8c.073-.4 0-.8-.036-1.2-.037-.108-.073-.217-.146-.29-.363-.218-.582-.509-.909-.69-.473-.255-.982-.328-1.418 0-.29.217-.582.4-.909.58-.145.11-.327.22-.436.328-.291.291-.618.582-.945.836-.328.328-.582.728-.837 1.127-.254.546-.545 1.091-.836 1.6-.073.218-.109.4-.218.582-.11.327-.255.654-.4.982-.073.254-.145.509-.255.727l-.181.472c-.546 1.019-.291 3.89-1.6 2.11l-.618-.255c-.11-.037-.182-.073-.291-.073-.218.036-.473.036-.654.145-1.019.328-1.927.873-2.618 1.637-.691.69-1.2 1.527-1.673 2.327-.436.763-.618 1.636-.836 2.508-.11.437-.11.946-.11 1.418-.035.11 0 .255 0 .4.037.146.074.255.074.4-.037.436.072.873.29 1.273.291.654.728 1.163 1.382 1.49.436.255.945.4 1.382.51.327.072.727 0 .945-.219.145-.145.29-.182.473-.254.618-.182.981-.618 1.127-1.273.073-.29.182-.545.363-.763l.219-.218c0 .072.072.109.109.181-.037.182 0 .4.036.582.036.364.11.69.182 1.018.036.291.182.582.145.836 0 .218 0 .328.146.51.072.036.072.108.109.181.072.473.327.873.509 1.273.327.545.69 1.09 1.236 1.49.618.728.654.582 1.382.873.363.145.654.182.981.182.073-.073.11-.182.146-.218.436-.182.763-.437 1.2-.655.254-.182.581-.363.763-.582.29-.181.509-.436.727-.69l.436-.618c.182-.291.328-.582.437-.91a.867.867 0 01.218-.4l.509-.69c0-.037.036-.073.109-.11.11-.545.036-.617.69-1.49l.328-.4c-.473-.473-.145.036 0-.545.327-.727.8-.91 1.273-1.636.581.181.181-.655.509-.873.145-.182.29-.4.072-.69-.072.072.618-.583.364-.583 0-.654.582-.472.145-.8-.69-.508-.545.037-.981.8-.727 1.237-1.31 2.51-2.182 3.709-.654 1.273-.618 1.745-.981 2.29a5.787 5.787 0 00-.473.8c-.4.619.145.073-.291.655-.073.109-.182.182-.255.254-.363.146-.4.328-1.127.437zm-.582-13.017c-1.527 1.6-.69-.763-.436-1.963.109-.873.545-1.563.763-2.436.037-.254.146-.509.255-.763.072-.219.109-.4.072-.619 0-.181.073-.29.255-.4.182-.181.364-.4.473-.69.145-.218.254-.437.218-.691 0-.11.072-.218.109-.327.182-.255.436-.51.545-.837.037-.109.146-.145.218-.218.255-.145.4-.109.546.218.036.219.072.437.072.655-.036.945-.072 1.89-.436 2.727-.073.145-.073.327-.073.472 0 .219-.036.364-.109.546-.327.618-.618 1.2-.872 1.818-.255.472-.582.872-.873 1.272-.29.4-.473.8-.727 1.236zm-6.944 5.09c1.127-1.89 1.636-1.09 1.018.946a2.686 2.686 0 000 .763l-.073.728c0 .072-.037.145-.037.218-.145.29-.327.545-.545.763-.327.364-.69.727-.982 1.091-.181.182-.363.4-.654.51-.036-.037-.11-.074-.11-.146-.363-.691-.29-1.382-.145-2.036l.51-1.018.181-.328c.291-.545.437-1.054.837-1.49zm3.635 8.981c-.072 0-.145.037-.109.037l1.346 1.018c.109.072.145.145.254.254-.145 0-.254 0-.29-.036-.619-.182-1.019-.546-1.419-1.018l-.145-.291s-.037-.037-.037-.073c-.072-.036-.109-.073-.109-.109l.073-.036.11.109c0 .036-.037.109 0 .145zm2.873-1.09c-.11-.073-.218-.11-.218-.219-.291-.327-.51-.69-.8-1.054.145-.073.145 0 .181.036.255.255.437.51.546.8.109.11.254.218.29.291zm-.691-1.964c-.073 0-.073-.073-.073-.109-.218-.364-.436-.764-.545-1.236.254.218.254.436.363.654.11.255.182.437.255.691zm.982 1.636c.109.073.072.182.109.255a.84.84 0 00-.255-.255c.11-.073.146-.036.146 0zm-1.6-.545c0-.037 0-.037-.037-.073l.037-.036c0 .036.072.072.072.109zm.69-.982h-.072c.036-.036.036-.073 0-.109zm-.908.4c-.037 0-.037 0-.11-.036h.073zm-.4 3.163h-.037c0-.036.037-.036.037-.036zm.472-2.945v.037h-.036zM120.838 22.384c-.109.218-.145.363-.109.509.073.254-.036.4-.145.618 0 0-.073.109-.073.182-.218.509-.873 1.309-1.164 2.036-.436.727.328-.037.328-.037-.182.255-.219.473-.4.728-.037.036-.073.181-.11.181-.254.037-.181.219-.254.255 0 .218-.073.4-.109.582-.145.29-.073 1.127-.182 1.563 0 .182 0 .436.073.655 0 .472.182.981.363 1.454.328.363.691.654 1.055.8.545.218 1.018.727 1.527.545 1.6.618 4.072-1.563 4.436-2.036 1.236-.727 1.781-2.727 2.545-4.108-.51-.11-.11-.619-.291-.982-.11.182-.11.182-.11.218-.181.582-.58 1.018-.908 1.49-1.745 1.855-.655 2.255-3.672 3.346-.219.036-.4.109-.582-.037-.218-.072-.4-.218-.545-.29-.11-.146-.255-.291-.291-.546-.037-.327.109-2.181.109-2.545.036-.654.036-.509.327-1.236.036-.073.109-.182.109-.291.073-.364-.582 1.018-.436.582.182-.328.327-.764.472-1.091l.182-.545c.291-.582.546-1.018.764-1.491.109-.364.072-.618-.073-.8-.145-.145-.509-.327-.618-.473-.364-.218-1.273.437-1.673.51-.109.072-.181.108-.29.254l-.037.036c-.109.037-.145 0-.218-.036zm3.781-4.218c-.145-.254-.327-.436-.581-.545-.146-.036-.328-.073-.473-.146-.036-.036-.073 0-.146.037-.072.036-.145.036-.145-.037-.036-.036-.109-.036-.182 0-.072 0-.145.073-.218.146l-.218.327c-.11.218-.29.4-.29.618 0 .037-.11.11-.11.182-.11.182-.182.29-.254.473-.037.145-.11.254-.11.363l-.109.146c.146.036.255.036.4.036.11 0 .182 0 .291.073.146.072.291.109.51-.037.072-.072.181-.145.254-.109.181-.036.472-.181.545-.29l.364-.437c.072-.073.072-.145.072-.182.037-.145.11-.218.182-.327.073-.073.11-.182.218-.29zM140.944 25.402c-.472.472-1.2 1.672-1.672 2.145l-.582.509-.8.472c-.218.146-.473.255-.69.364-.255.11-.51.145-.764.182a.382.382 0 01-.327-.182 4.558 4.558 0 01-.328-.909c-.036-.254 0-.509.11-.764l.508-1.018c.037-.072.073-.109.073-.181-.036-.364-.073-.727-.327-1.055l-.218-.218c-.218-.254-.473-.29-.8-.254l-.764 1.236c-.181.29-.4.545-.618.8l-.29.327a2.226 2.226 0 01-.546.618c-.436.327-.836.69-1.2 1.054l-.145.11c0-.073-.037-.11 0-.146.073-.4.218-.8.436-1.2.036-.073.073-.145.146-.218l.363-.509c.291-.4.545-.8.873-1.163l.436-.473c.327-.473.8-.836 1.2-1.236v-.037c.29-.218.582-.436.909-.581.327-.182.4-.4.327-.728l-.11-.29c-.144-.255-.399-.437-.617-.655a.278.278 0 00-.182-.073c-.182 0-.327-.181-.509-.181 0 0-.036 0-.073-.037-.072-.145-.218-.145-.4-.182-.072 0-.145-.036-.218-.072-.254-.073-.545-.073-.763-.182h-.11c-.254 0-.472.036-.69.073a.868.868 0 00-.327.072c-.546.328-.982.691-1.382 1.128-.545.654-1.127 1.345-1.6 2.072-.036.036-.073.073-.073.109-.363.4-.618.873-.872 1.345a2.811 2.811 0 00-.291 1.636c.11 1.128.69 1.927 1.745 2.364.182.072.364.145.546.254.472.255.981.255 1.49.11.291-.11.582-.146.8-.437 0 0 .037-.036.073-.036l.4-.255c.218-.182.472-.327.763-.473.219.291.546.473.873.619l.182.109c.363.29.8.363 1.236.509h.327c.291-.073.582-.073.836-.182.291-.11.582-.11.91-.182.254-.073.472-.182.69-.364.218-.218.51-.436.727-.69.037-.073.11-.11.182-.146.182-.109.327-.218.436-.436.037-.11.146-.182.219-.255l.4-.472c.072-.037.109-.146.218-.182.181-.145.545-1.018.581-1.273-.181-.181-.363-.327-.618-.363zM150.434 38.454a1.15 1.15 0 00.69-.4c0-.036.037-.036.073-.072.218-.11.546-.219.691-.437l.291-.363c.29-.291 1.273-1.31 1.454-1.71.11-.254.291-.472.437-.69l.109-.073a.438.438 0 00.182-.181c.072-.219 0-.619.145-.837 0 0-.036-.036.036-.145-.036-.11.037-.182 0-.291.218-.873.218-.727.073-1.454 0-.982 1.09-.982 1.818-1.527l.4-.328c.4-.29.763-.654 1.163-.872l.146-.146.763-.654.473-.436c.182-.219.29-.51.473-.728.145-.218.254-.436.327-.69 0-.11.073-.182.109-.291.145-.218.109-.437.036-.655l-.145-.363-.546.618c-.218.254-.436.509-.69.727-.364.327-.764.654-1.164.945-.545.437-1.09.837-1.636 1.236-.945.255-2.109 1.237-2.436.437-.145-.146-.145-.546-.327-.691-.4-.4-.8-1.782-1.273-2.182-.109-.109-.29-.29-.363-.472-.11-.291-.11-.946.036-1.31l.29-.58c.037-.037.037-.11.037-.11-.036-.182.11-.29.146-.4a.99.99 0 01.29-.363c.146-.037.182-.146.255-.291.146-.291.218-.655.291-.946.073-.218.073-.436.073-.654-.073-.073-.073-.182-.073-.29-.036-.474-.618-1.819-.945-1.964-.037-.037-.073-.037-.073-.037a1.878 1.878 0 00-.655-.436c-.072-.073-.145 0-.254.145a.512.512 0 01-.218.255c-.073.036-.11.036-.146.11-.145.254-.363.472-.509.763l-.327.654c-.109.11-.145.218-.218.327-.073.218-.145.327-.218.51-.11.181-.146.436-.255.617.11.182 0 .4-.036.51-.145.218-.218.436-.182.654-.073.145-.036.218-.109.29 0 .655.69 3.31 1.018 3.782.037.145.146.254.182.4.364.654.727 1.272.945 2.109.437 1.09.655 1.454-.727 2.727-.69.618-1.309 1.345-1.89 2.181-.291.436-.51.836-.619 1.309-.072.182-.109.436-.109.582.073.4.11.763.328 1.054.145.146.181.364.254.582.145.29.29.363.582.182a.2.2 0 00.182-.11c.109 0 .181-.072.29-.072l-.072.182c.181.072.181.072.254.036.218-.073.4-.109.582-.254.036-.11.145-.11.218-.182.036.072.036.072.11.109v.109c.326-.218.326-.218.472-.218-.218.29-.436.545-.655.872zm-.546-4c.437-.435 1.746-2.108 1.746-.944 0 .036 0 .109-.037.109-.145.363-.109.727-.29 1.054-.11.327-.255.654-.437.945-.036.073-.073.182-.145.255a2.713 2.713 0 01-.8.981l-.437.473-.436.364c-.145.145-.29.109-.4.036l-.436-.509c-.11-.109-.145-.254-.073-.473.073-.181.073-.363.11-.581.072-.182.217-.328.363-.473.145-.11.254-.254.363-.473.11-.254.328-.472.546-.545a.754.754 0 00.363-.218zM160.65 24.565c-.036.11-.036.182-.145.218-.545.655-1.018 1.346-1.345 2.146-.327.654-.546 1.309-.618 2-.073.69-.037 1.345.036 2l.327.98c.364.619.8 1.091 1.455 1.164.472.073.981.11 1.49-.036.11-.073.291-.146.364-.146.4-.109.727-.363 1.018-.69.036-.11.145-.182.218-.219l.255-.181c.218-.146.363-.4.509-.618.254-.328.509-.655.69-1.091.255-.618.582-1.2.691-1.818.037-.073.073-.11.073-.182 0-.073.11-.109.218-.109h.11c1.308 0 5.053-1.054 6.144-2.218.145-.145-.218-.218-.11-.4.037-.072.073-.218 0-.327l-.254.145-.582.291c-1.745.291-2.835 1.127-4.617 1.236-.29 0-.51-.254-.4-.472.11-.4 0-.8.036-1.236 0-.037-.036-.328-.036-.473-.073-.29-.073-.545-.11-.873-.072-.363-.108-.727-.217-1.054-.146-.255-.218-.509-.327-.8-.182-.473-.4-.8-.728-1.09-.254-.146-.472-.364-.69-.546-.182-.145-.982-.873-1.273-.873-.4-.072-.836-.036-1.163.182-.437.255-.8.473-1.091.727-.146.037-.218.11-.255.182-.327.582-.509 1.164-.4 1.782.11.836.291 1.636.691 2.29.037.037.037.073.037.11zm4.327-.69c.436 2.436-1.49 3.163-2.545 1.09-.909-.981-1.854-2.872-.873-4.254.255-.254 1.055-1.018 1.491-.654.255.145.436.29.655.473.218.109.327.29.472.436.255.218.4.509.51.872.108.4.181.728.254 1.164.109.254.109.582.036.873zm-1.927-6c.073-.036.11-.036.146-.036.618-.327 1.163-.764 1.672-1.236.436-.4.873-.873 1.273-1.345.109-.182.218-.328.363-.437.037-.109.037-.145-.036-.182-.073-.109-.218-.181-.255-.29 0-.037-.072-.073-.072-.037-.073-.072-.146-.145-.218-.182-.364-.254-.946-.109-1.2.255l-.437.69a2.77 2.77 0 00-.218.728c-.036.145-.036.29-.109.4-.073.145-.109.29-.218.4-.182.182-.327.436-.436.618-.073.073-.146.182-.11.29 0 .074 0 .183-.108.292-.037 0-.037.036-.037.072zm-.654 10.653c.472-.618.872-.945 1.709-.581-.11.254-.182.581-.364.872-.364.837-.8 1.673-1.418 2.327l-.145.11c-.037.036-.037.036-.073.036-.182-.073-.327-.255-.4-.437-.036-.072-.11-.109-.036-.181 0-.182 0-.4.036-.582.218-.655.29-.982.69-1.564zm3.781-3.999v.036c-.036-.145-.036-.109 0-.036zm.036.11c0-.037-.036-.037-.036-.074 0 .037.036.037.036.073zM192.973 25.147c-.182.11-.073-.545-.182-.4-.181.255-.763.582-.945.836-.327.473-1.345 1.2-1.672 1.636l-.546.655c-.472.545-1.49 1.272-2.036 1.745-.69.618-2.4 1.345-3.2 1.454-.254.037-1.163.4-1.345.182-.109-.145-.218-.29-.29-.436l-.328-.727a1.404 1.404 0 01-.109-.764c.037-.218.037-.4.11-.581.181-.619.363-1.237.654-1.782l.872-1.818c.218-.473.473-.909.764-1.309.29-.4.654-.763.872-1.236l.146-.11c-.037.11-.037.183-.037.22-.29.69-.472 1.38-.69 2.108l-.11.509c-.036.182.037.29.146.363l.11.073c.217.11.472.218.654.4.036.036.109.073.218.073.072 0 .145-.037.218-.037.218-.036.363-.181.473-.436.254-.582.472-1.2.618-1.854.036-.182.036-.364.036-.545 0-.328-.036-.691-.11-1.019-.072-.218-.108-.436-.145-.654l.219-.327c-.037-.037 0-.11-.037-.146-.072-.145-.109-.29-.036-.472.036-.182-.036-.291-.146-.4-.109-.073-.181-.037-.29.036-.037.036-.073.036-.11.036-.036 0-.072-.036-.109-.036-.363-.254-.763-.4-1.2-.363 0 .036 0 .036-.036 0-.254-.037-.545.036-.836.181-.11.037-.218.073-.327.073a1.28 1.28 0 00-.764.255c-.472.327-.872.727-1.309 1.09-.363.291-.654.691-.945 1.127l-.29.437c-.364.69-.8 1.345-1.055 2.145l-.291.763c-.11.364-.182.728-.218 1.091a7.908 7.908 0 000 1.854c.109 1.055.472 1.818 1.163 2.364.437.327.91.581 1.418.8.473.181 1.564.654 2.073.545.327-.11 1.527.036 1.854 0 .29 0 1.6-.69 1.854-.836a7.191 7.191 0 001.236-.91l1.164-1.235c.254-.291.473-.655.727-1.018.036 0 .036-.073.036-.11.182-.4.4-.763.655-1.127l.654-.909c.218-.254.727-1.127.8-1.454zM192.755 24.565c-.036.11-.036.182-.145.218-.546.655-1.018 1.346-1.346 2.146-.327.654-.545 1.309-.618 2-.072.69-.036 1.345.037 2l.327.98c.363.619.8 1.091 1.454 1.164.473.073.982.11 1.49-.036.11-.073.292-.146.364-.146.4-.109.728-.363 1.018-.69.037-.11.146-.182.219-.219l.254-.181c.218-.146.364-.4.51-.618.254-.328.508-.655.69-1.091.254-.618.582-1.2.69-1.818.037-.073.073-.11.073-.182 0-.073.11-.109.219-.109h.109c1.309 0 4.654.036 5.744-1.127.146-.146-.218-.218-.109-.4.037-.073.073-.218 0-.327l-.254.145-.582.291c-1.745.29-2.436.036-4.218.145-.29 0-.509-.254-.4-.472.11-.4 0-.8.037-1.236 0-.037-.036-.328-.036-.473-.073-.29-.073-.545-.11-.873-.072-.363-.109-.727-.218-1.054-.145-.255-.218-.509-.327-.8-.182-.473-.4-.8-.727-1.09-.255-.146-.473-.364-.69-.546-.183-.145-.983-.873-1.273-.873-.4-.072-.837-.036-1.164.182-.436.255-.8.473-1.09.727-.146.037-.219.11-.255.182-.327.582-.51 1.164-.4 1.782.109.836.29 1.636.69 2.29.037.037.037.073.037.11zm4.327-.69c.436 2.436-1.491 3.163-2.545 1.09-.91-.981-1.855-2.872-.873-4.254.254-.254 1.054-1.018 1.49-.654.255.145.437.29.655.473.218.109.327.29.473.436.254.218.4.509.509.872.109.4.182.728.254 1.164.11.254.11.582.037.873zm-2.582 4.653c.473-.618.873-.945 1.71-.581-.11.254-.183.581-.365.872-.363.837-.8 1.673-1.417 2.327l-.146.11c-.036.036-.036.036-.073.036-.181-.073-.327-.255-.4-.437-.036-.072-.109-.109-.036-.181 0-.182 0-.4.036-.582.219-.655.291-.982.691-1.564zm3.782-3.999v.036c-.037-.145-.037-.109 0-.036zm.036.073s-.036 0-.036-.037c0 .037.036.037.036.037zM210.062 26.965c.109-.182.254-.436.327-.618.182-.291.327-.618.545-.91.218-.363.51-.654.836-.98.291-.328.51-.692.691-1.128.146-.327.328-.545.546-.8.363-.29.727-.654 1.09-1.018.146-.109.255-.182.328-.29.145-.146.29-.146.4-.037.072.218-.037.4-.182.545-.255.51-.582.946-.836 1.418-1.055 1.527-1.927 3.127-2.51 4.945-.145.4-.217.764-.217 1.164-.037.509.072.836.327 1.09.218.255.473.437.763.473.619.073 1.273-.11 1.855-.582.145-.145.254-.29.363-.436.328-.364.764-.582.982-1.018.073-.11.145-.11.182-.182.436-.327.836-.618 1.163-1.018.073-.145.182-.182.255-.254l.872-.728c.182-.145.364-.254.546-.145.145-.182.218-.364.363-.509.218-.327.218-.327.255-.69.145-.11.327-.183.509-.255.182-.037.327-.291.545-.328 0 .11.037.146 0 .219 0 .109-.036.254-.073.363-.327.873-.545 1.745-.727 2.654-.145.546-.145 1.091.037 1.527.218.51.8.91 1.163 1.237.182.145 1.055.218 1.236.218.4 0 1.927-1.091 2.11-1.491.072-.036.18-.073.18-.182.255-.254.474-.509.8-.727.037-.073.146-.182.146-.327.182-.436.4-.8.618-1.2.073-.073.073-.182.146-.182.109.073.29-.69.29-.545.073-.618-.108-.291 0-.836.037-.037 0-.037-.072-.146-.11.11-.182.291-.218.473-.51.872-1.055 1.709-1.71 2.436-.363.472-2.253 1.818-2.799 1.709-.181-.073-.254-.182-.254-.437a6.219 6.219 0 010-1.163c.073-.4.145-.836.182-1.273.145-.181 0-.472.218-.581.109-.291.182-.546.182-.8a3.798 3.798 0 010-.91c-.146-.181-.255-.363-.437-.436-.254-.109-.327-.363-.509-.509-.145-.145-.327-.181-.545 0-.11.11-.182.182-.291.219-.654.363-1.273.872-1.854 1.418-.618.654-1.273 1.236-2 1.636a.78.78 0 01-.255.145c.073-.4.219-.727.291-1.054.328-.764.546-1.527.8-2.364.11-.4.11-.763.037-1.127-.037-.29-.11-.509-.182-.763-.11-.291-.218-.51-.4-.655-.291-.254-.546-.581-.836-.872-.073-.073-.182-.11-.328-.182-.254-.036-.581 0-.909.145-.109.037-.254.146-.4.291-.763.837-1.527 1.673-2.217 2.618-.219.327-.437.545-.691.836-.618.727-1.2 1.455-1.854 2.182l-1.128 1.309c-.036.036-.109.036-.181.072.145-.29.218-.581.254-.836.073-.073.073-.109.073-.109 0-.036.036-.073.036-.073.327-.727.546-1.454.764-2.181l.145-.545c.146-.291.218-.619.364-.91.182-.363.218-.8.145-1.2l-.182-1.054c-.145-.618-.472-1.127-.727-1.672 0-.073-.109-.146-.182-.182-.436-.254-.836-.545-1.236-.8-.145-.145-.327-.145-.509-.109-.145.291-.218.51-.363.727-.437.764-.873 1.564-1.091 2.4-.036.109-.073.145-.073.254-.472.982-.872 2.037-1.345 3.018-.218.546-.436 1.09-.618 1.709-.291 1.127-.51 2.254-.582 3.381-.073.182-.073.364-.073.546.073.8.291 1.418.873 1.745.364.182.727.218 1.127.218.436-.036.836-.218 1.236-.436.182-.146.364-.291.546-.327.109 0 .181-.11.181-.146.11-.254.291-.363.4-.509.255-.218.51-.436.655-.8.145-.218.327-.4.509-.654.036-.073.073-.11.073-.182a.633.633 0 01.363-.473c.146-.145.218-.327.4-.509.327.073.51-.145.655-.509 0-.036 0-.072.036-.072.036-.11.145-.11.182-.073.036 0 .109.073.145.073zM229.04 25.038c.11-.11.219-.073.255.036.182.291.327.618.473.91.036.108.109.181.036.327 0 .036.037.145.073.181.218.11.4.437.69.4 0 0 .037 0 .037.037.073.145.182.109.291.145.218.036.473 0 .69-.109.255-.073.51-.255.655-.545.146-.255.291-.473.364-.728.109-.29.254-.509.4-.763.254-.436.472-.909.545-1.418.11-.473.073-.873 0-1.309-.036-.109-.073-.254-.145-.327-.255-.218-.4-.582-.582-.91-.073-.145-.145-.29-.254-.363-.328-.218-1.71-.581-2.073-.763-.073-.073-.109-.218-.218-.291-.073-.073-.218-.036-.327-.146-.11-.181-.291-.145-.473-.072l-.364.182a8.258 8.258 0 00-1.636 1.381 10.042 10.042 0 00-1.345 1.673c-.4.581-.727 1.2-1.018 1.854-.109.254-.254.473-.254.8.181-.327.327-.618.436-.946.073-.218.182-.29.363-.4.037.328.037.328-.072.546-.473 1.018-.764 2.109-.764 3.236.037.545.073 1.054.255 1.527.109.29.29.582.509.763.581.51.836 1.127 2.108 1.637.473.181 2.618.581 3.127.509.437-.037.873-.11 1.31-.255l.326-.11c.4-.072.8-.254 1.164-.472.218-.145.436-.254.654-.363l.437-.291c.181-.11.327-.255.509-.4.363-.291.727-.582 1.054-.945.182-.219.4-.437.618-.619a2.11 2.11 0 00.364-.436c-.073-.036-.073-.073-.11-.109.037-.182.219-.218.255-.436l-.29.109.145-.218.363-.437c.146-.29.328-.509.546-.763a.792.792 0 00.182-.291c.145-.29.218-.582.29-.909-.218.073-.327.255-.436.436-.327.473-.69.873-1.09 1.273l-.655.727-.11.11c-.617.508-1.199 1.054-1.817 1.526-.8.618-1.636 1.091-2.509 1.345-.182.037-1.236.219-1.418.182-.582-.036-1.2-.69-1.709-1.2-.109-.145-.4-.945-.509-1.09a1.737 1.737 0 01-.145-.655c0-.254 0-.472-.036-.727-.037 0-.073-.036-.146-.073l.11-.763h.072c0 .073 0 .182-.036.29h.254v-.036c-.036-.036-.073-.036-.145-.036.036-.218.036-.255.109-.29.109-.037.145-.074.181-.219 0-.11.073-.145.11-.182.072-.036.145-.109.145-.182 0-.218.145-.363.182-.545zm1.964-2.581c.545-.437 1.709-.764 1.127.618-.218.618-.363.727-.618 1.345-.145.254-.327.509-.582.582-.29.036-.581.072-.8-.182-.072-.11-.218-.182-.327-.255-.182-.109-.218-.29-.072-.545l.254-.4c.327-.4.618-.873 1.018-1.163zm-5.526 6.362c.109.182.109.4.218.618.072.182.182.328.29.51-.072 0-.108.036-.108 0a.586.586 0 01-.255-.146c-.109-.145-.218-.255-.29-.4-.4-.764-.437-1.636-.292-2.581l.11-.51c.036-.145.108-.29.218-.508v.254c0 .11-.037.218-.073.327-.146.546-.146 1.055-.146 1.6 0 .036-.036.073 0 .11.073.472.146.944.328 1.308 0 .036.036.036.072.073.073-.146-.036-.218-.036-.328l-.11-.29s.037-.037.074-.037zm0-2.4c.109.219.072.473.036.728l-.11 1.127c-.035-.036-.072-.036-.072-.073-.073-.545-.109-1.09.073-1.672 0-.037.036-.073.073-.11zM238.167 37c0 .182 0 .327.036.436.073.255.873.91 1.054.836.11 0 .182-.036.291-.036.182-.109.437-.182.655-.29.073-.037.109-.073.145-.073.11-.073.218-.11.291-.182.11-.073.182-.146.327-.218.037 0 .073-.037.11-.073.036-.036.072-.036.072-.036.146-.037.182-.146.218-.219.037-.072.073-.145.146-.218.072-.036.109-.109.181-.182l.219-.109c.036 0 .145-.072.145-.145.145-.11 0-.036.11-.146.217-.181.18-.218.29-.472.073-.255.11-.546.11-.8.035-.11 0-.255-.074-.364a1.474 1.474 0 00-.181-.327c-.073-.109-1.71-.4-1.855-.436-.727-.146-.4-.291.037-1.31v-.035c.4.109.8.218 1.054.145.327-.11 1.527.036 1.854 0 .291 0 1.6-.69 1.855-.836a7.191 7.191 0 001.236-.91l1.163-1.235c.255-.291.473-.655.727-1.018.037 0 .037-.073.037-.11.182-.4.4-.763.654-1.127l.655-.909c.218-.254.727-1.127.8-1.454-.182.11-.073-.545-.182-.4-.182.255-.764.582-.946.836-.327.473-1.345 1.2-1.672 1.636l-.545.655c-.473.545-1.491 1.272-2.036 1.745-.691.618-2.4 1.345-3.2 1.454-.255.037-1.163.4-1.345.182-.11-.145-.218-.29-.291-.436l-.327-.727a1.404 1.404 0 01-.11-.764c.037-.218.037-.4.11-.581.181-.619.363-1.237.654-1.782l.873-1.818c.218-.473.472-.909.763-1.309.291-.4.655-.763.873-1.236l.145-.11c-.036.11-.036.183-.036.22-.291.69-.473 1.38-.69 2.108l-.11.509c-.036.182.036.29.145.363l.11.073c.218.11.472.218.654.4.036.036.109.073.218.073.073 0 .146-.037.218-.037.218-.036.364-.181.473-.436.254-.582.473-1.2.618-1.854.036-.182.036-.364.036-.545 0-.328-.036-.691-.109-1.019-.072-.218-.109-.436-.145-.654l.218-.327c-.036-.037 0-.11-.036-.146-.073-.145-.11-.29-.037-.472.037-.182-.036-.291-.145-.4-.11-.073-.182-.037-.291.036-.036.036-.073.036-.11.036-.035 0-.072-.036-.108-.036-.364-.254-.764-.4-1.2-.363 0 .036 0 .036-.036 0-.255-.037-.546.036-.837.181-.109.037-.218.073-.327.073a1.28 1.28 0 00-.763.255c-.473.327-.873.727-1.31 1.09-.363.291-.654.691-.945 1.127l-.29.437c-.364.69-.8 1.345-1.055 2.145l-.29.763c-.11.364-.182.728-.219 1.091a7.908 7.908 0 000 1.854c.11 1.055.473 1.818 1.164 2.364.436.327.909.581 1.418.8 0 0 .036 0 .072.036l-.072.254c-.11.364-.255.91-.328 1.273-.036.218 0 .4 0 .618l.073.327c.036.182.327.473.51.473.108 0 .217 0 .326.036l.219-.036c.254 0 .363-.036.618-.036.145-.037.327.036.509.036.109 0 .29-.11.4-.036.145.036.181.109.145.254-.036.037-.11.11-.11.146l-.254.181-.181.219c-.073 0-.073.072-.146.109-.29.181-.436.327-.727.472-.436.255-.8.4-1.309.437-.109.036-.218 0-1.054.036zM262.2 25.402c-.473.472-1.2 1.672-1.673 2.145l-.582.509-.8.472c-.218.146-.472.255-.69.364-.255.11-.51.145-.764.182a.382.382 0 01-.327-.182 4.558 4.558 0 01-.327-.909c-.037-.254 0-.509.109-.764l.509-1.018c.036-.072.073-.109.073-.181-.037-.364-.073-.727-.328-1.055l-.218-.218c-.218-.254-.472-.29-.8-.254l-.763 1.236c-.182.29-.4.545-.618.8l-.291.327a2.226 2.226 0 01-.546.618c-.436.327-.836.69-1.2 1.054l-.145.11c0-.073-.036-.11 0-.146.073-.4.218-.8.436-1.2.037-.073.073-.145.146-.218l.363-.509c.291-.4.546-.8.873-1.163l.436-.473c.328-.473.8-.836 1.2-1.236v-.037c.291-.218.582-.436.91-.581.326-.182.4-.4.326-.728l-.109-.29c-.145-.255-.4-.437-.618-.655a.278.278 0 00-.182-.073c-.181 0-.327-.181-.509-.181 0 0-.036 0-.072-.037-.073-.145-.218-.145-.4-.182-.073 0-.146-.036-.218-.072-.255-.073-.546-.073-.764-.182h-.109c-.255 0-.473.036-.69.073a.868.868 0 00-.328.072c-.545.328-.982.691-1.382 1.128-.545.654-1.127 1.345-1.6 2.072-.036.036-.072.073-.072.109-.364.4-.618.873-.873 1.345a2.811 2.811 0 00-.29 1.636c.108 1.128.69 1.927 1.745 2.364.181.072.363.145.545.254.473.255.982.255 1.49.11.292-.11.582-.146.8-.437 0 0 .037-.036.073-.036l.4-.255c.218-.182.473-.327.764-.473.218.291.545.473.872.619l.182.109c.364.29.8.363 1.236.509h.328c.29-.073.581-.073.836-.182.29-.11.582-.11.909-.182.254-.073.472-.182.69-.364.219-.218.51-.436.728-.69.036-.073.109-.11.182-.146.181-.109.327-.218.436-.436.036-.11.145-.182.218-.255l.4-.472c.073-.037.109-.146.218-.182.182-.145.545-1.018.582-1.273-.182-.181-.364-.327-.618-.363zM283.142 34.346a.384.384 0 00-.073.182c-.218-.037-.363-.182-.545-.291.073-.11.182-.073.29-.11-.4-.363-.763-.69-1.017-1.2-.11-.108-.218-.254-.182-.472.036-.073-.036-.218-.109-.327-.036-.146-.073-.255-.218-.364-.146-.472-.291-.945-.327-1.454-.037-.218.036-.436-.073-.654-.036-.037-.036-.073-.036-.146v-.945c.036-.218.072-.473 0-.727-.037-.182 0-.364 0-.546.072-.073.109-.182.072-.254 0-.255.073-.473.037-.691.109-.327.181-.582.218-.873.036-.29.109-.618.182-.909.036-.145.072-.29.218-.4.181-.363 0-.472.29-.836.328-.4.691-.836.837-1.345.109-.218.29-.4.472-.582.219-.145.437-.363.546-.654.109-.364.29-.691.582-.982.181-.254.327-.582.436-.909.036-.218.109-.4.182-.618a8.88 8.88 0 00.363-.873c.146-.327.291-.618.473-.872.109-.182.182-.4.218-.618.036-.073 0-.146.036-.218.182-.291.182-.619.182-.91l.11-.8c.072-.4 0-.8-.037-1.2-.036-.108-.073-.217-.146-.29-.363-.218-.581-.509-.908-.69-.473-.255-.982-.328-1.418 0-.291.217-.582.4-.91.58-.145.11-.327.22-.436.328-.29.291-.618.582-.945.836-.327.328-.582.728-.836 1.127-.255.546-.546 1.091-.837 1.6-.072.218-.109.4-.218.582-.109.327-.254.654-.4.982-.072.254-.145.509-.254.727l-.182.472c-.545 1.019-.29 3.89-1.6 2.11l-.618-.255c-.109-.037-.182-.073-.29-.073-.219.036-.473.036-.655.145-1.018.328-1.927.873-2.618 1.637-.69.69-1.2 1.527-1.672 2.327-.437.763-.618 1.636-.837 2.508-.109.437-.109.946-.109 1.418-.036.11 0 .255 0 .4.037.146.073.255.073.4-.036.436.073.873.29 1.273.292.654.728 1.163 1.382 1.49.437.255.946.4 1.382.51.327.072.727 0 .945-.219.146-.145.291-.182.473-.254.618-.182.982-.618 1.127-1.273.073-.29.182-.545.364-.763l.218-.218c0 .072.073.109.109.181-.036.182 0 .4.036.582.037.364.11.69.182 1.018.037.291.182.582.146.836 0 .218 0 .328.145.51.073.036.073.108.11.181.072.473.326.873.508 1.273.327.545.69 1.09 1.236 1.49.618.728.655.582 1.382.873.364.145.654.182.982.182.072-.073.109-.182.145-.218.436-.182.764-.437 1.2-.655.254-.182.582-.363.763-.582.291-.181.51-.436.728-.69l.436-.618c.182-.291.327-.582.436-.91a.867.867 0 01.218-.4l.51-.69c0-.037.036-.073.108-.11.11-.545.037-.617.691-1.49l.327-.4c-.472-.473-.145.036 0-.545.328-.727.8-.91 1.273-1.636.582.181.182-.655.509-.873.145-.182.29-.4.073-.69-.073.072.618-.583.363-.583 0-.654.582-.472.146-.8-.691-.508-.546.037-.982.8-.727 1.237-1.309 2.51-2.181 3.709-.655 1.273-.619 1.745-.982 2.29a5.787 5.787 0 00-.473.8c-.4.619.146.073-.29.655-.073.109-.182.182-.255.254-.364.146-.4.328-1.127.437zm-.582-13.017c-1.527 1.6-.69-.763-.436-1.963.11-.873.545-1.563.764-2.436.036-.254.145-.509.254-.763.073-.219.11-.4.073-.619 0-.181.073-.29.254-.4.182-.181.364-.4.473-.69.145-.218.254-.437.218-.691 0-.11.073-.218.11-.327.181-.255.436-.51.545-.837.036-.109.145-.145.218-.218.254-.145.4-.109.545.218.036.219.073.437.073.655-.037.945-.073 1.89-.436 2.727-.073.145-.073.327-.073.472 0 .219-.037.364-.11.546-.326.618-.617 1.2-.872 1.818-.254.472-.582.872-.872 1.272-.291.4-.473.8-.728 1.236zm-6.944 5.09c1.127-1.89 1.636-1.09 1.018.946a2.686 2.686 0 000 .763l-.073.728c0 .072-.036.145-.036.218-.146.29-.327.545-.546.763-.327.364-.69.727-.981 1.091-.182.182-.364.4-.655.51-.036-.037-.109-.074-.109-.146-.363-.691-.29-1.382-.145-2.036l.509-1.018.182-.328c.29-.545.436-1.054.836-1.49zm3.636 8.981c-.073 0-.146.037-.11.037l1.346 1.018c.109.072.145.145.254.254-.145 0-.254 0-.29-.036-.619-.182-1.018-.546-1.418-1.018l-.146-.291s-.036-.037-.036-.073c-.073-.036-.11-.073-.11-.109l.073-.036.11.109c0 .036-.037.109 0 .145zm2.872-1.09c-.109-.073-.218-.11-.218-.219-.291-.327-.51-.69-.8-1.054.145-.073.145 0 .182.036.254.255.436.51.545.8.11.11.255.218.291.291zm-.69-1.964c-.073 0-.073-.073-.073-.109-.219-.364-.437-.764-.546-1.236.255.218.255.436.364.654.109.255.182.437.254.691zm.98 1.636c.11.073.074.182.11.255a.84.84 0 00-.255-.255c.11-.073.146-.036.146 0zm-1.599-.545c0-.037 0-.037-.036-.073l.036-.036c0 .036.073.072.073.109zm.691-.982h-.073c.037-.036.037-.073 0-.109zm-.909.4c-.036 0-.036 0-.11-.036h.074zm-.4 3.163h-.036c0-.036.036-.036.036-.036zm.473-2.945v.037h-.037zM292.268 25.038c.11-.11.218-.073.255.036.181.291.327.618.472.91.037.108.11.181.037.327 0 .036.036.145.072.181.218.11.4.437.691.4 0 0 .036 0 .036.037.073.145.182.109.291.145.218.036.473 0 .691-.109.255-.073.51-.255.655-.545.145-.255.29-.473.363-.728.11-.29.255-.509.4-.763.255-.436.473-.909.546-1.418.109-.473.072-.873 0-1.309-.037-.109-.073-.254-.146-.327-.254-.218-.4-.582-.582-.91-.072-.145-.145-.29-.254-.363-.327-.218-1.709-.581-2.073-.763-.072-.073-.109-.218-.218-.291-.072-.073-.218-.036-.327-.146-.11-.181-.29-.145-.473-.072l-.363.182a8.258 8.258 0 00-1.636 1.381 10.042 10.042 0 00-1.346 1.673c-.4.581-.727 1.2-1.018 1.854-.109.254-.254.473-.254.8.182-.327.327-.618.436-.946.073-.218.182-.29.364-.4.036.328.036.328-.073.546-.473 1.018-.764 2.109-.764 3.236.037.545.073 1.054.255 1.527.11.29.29.582.509.763.582.51.836 1.127 2.109 1.637.472.181 2.618.581 3.127.509.436-.037.872-.11 1.309-.255l.327-.11c.4-.072.8-.254 1.163-.472.218-.145.437-.254.655-.363l.436-.291c.182-.11.327-.255.509-.4.364-.291.727-.582 1.054-.945.182-.219.4-.437.618-.619a2.11 2.11 0 00.364-.436c-.073-.036-.073-.073-.109-.109.036-.182.218-.218.255-.436l-.291.109.145-.218.364-.437c.145-.29.327-.509.545-.763a.792.792 0 00.182-.291c.145-.29.218-.582.29-.909-.217.073-.327.255-.436.436-.327.473-.69.873-1.09 1.273l-.655.727-.109.11c-.618.508-1.2 1.054-1.818 1.526-.8.618-1.636 1.091-2.509 1.345-.181.037-1.236.219-1.418.182-.581-.036-1.2-.69-1.708-1.2-.11-.145-.4-.945-.51-1.09a1.737 1.737 0 01-.145-.655c0-.254 0-.472-.036-.727-.037 0-.073-.036-.146-.073l.11-.763h.072c0 .073 0 .182-.036.29h.254v-.036c-.036-.036-.072-.036-.145-.036.036-.218.036-.255.109-.29.109-.037.145-.074.182-.219 0-.11.072-.145.109-.182.073-.036.145-.109.145-.182 0-.218.146-.363.182-.545zm1.963-2.581c.546-.437 1.71-.764 1.128.618-.219.618-.364.727-.619 1.345-.145.254-.327.509-.581.582-.291.036-.582.072-.8-.182-.073-.11-.218-.182-.327-.255-.182-.109-.219-.29-.073-.545l.254-.4c.328-.4.618-.873 1.018-1.163zm-5.526 6.362c.109.182.109.4.218.618.073.182.182.328.291.51-.073 0-.11.036-.11 0a.586.586 0 01-.254-.146c-.109-.145-.218-.255-.29-.4-.4-.764-.437-1.636-.291-2.581l.109-.51c.036-.145.109-.29.218-.508v.254c0 .11-.036.218-.073.327-.145.546-.145 1.055-.145 1.6 0 .036-.037.073 0 .11.072.472.145.944.327 1.308 0 .036.036.036.073.073.072-.146-.037-.218-.037-.328l-.109-.29s.037-.037.073-.037zm0-2.4c.109.219.073.473.036.728l-.109 1.127c-.036-.036-.072-.036-.072-.073-.073-.545-.11-1.09.072-1.672 0-.037.037-.073.073-.11zM308.557 29.22c.109-.219-.037.363-.437.908-.109.182-.29.327-.472.436-.073.073-.182.073-.255.146-.109 0-.218-.146-.254-.327 0-.437.145-.691.363-.8.327-.255.655-.182 1.055-.364zm3.163-3.855l-.146-1.054c0-.255-.072-.582-.109-.873-.036-.29-.181-.582-.363-.69-.291-.255-.582-.546-.91-.473h-.617c-.255 0-.582.182-.8.4-.291.29-.546.654-.8.945-.291.364-.473.69-.655 1.163l-1.2 2.473c-.108.363-.654 1.09-.763 1.381-.254.619-1.418.873-.836-1.163.218-.654.436-1.382.654-1.963.328-.91.582-1.855.8-2.727a5.012 5.012 0 00.11-1.782c-.11-1.09-.437-1.89-.982-2.545l-.037-.036-.872-.546c-.182-.145-.364-.145-.546 0-.254.546-.545 1.164-.727 1.71-.436 1.126-.8 2.29-1.236 3.38-.11.437-.255.764-.364 1.128a88.237 88.237 0 00-1.309 4.69 24.248 24.248 0 00-.69 3.309c-.11.654-.255 1.381-.328 2.072-.218 1.745-.327 3.418-.254 5.163.036.727.109 1.49.327 2.181.218.691.582 1.127 1.164 1.018h.036c.073-.109.109-.363.218-.363.036 0 .146-.146.182-.182.109-.29.254-.436.436-.545.255-.11.4-.364.436-.691.11-.436.11-.873.146-1.31.073-.98.363-1.89.727-2.799.11-.181.182-.363.4-.618.073-.072.145-.218.218-.363.073-.218.11-.51.11-.764 0-.218.072-.509.254-.582.218-.145.29-.4.4-.654.472-1.418 1.709-2.727 2.254-4.036.327-.8.69-1.49 1.09-2.254.546-1.018 1.055-2.145 1.6-3.2.182-.436.437-.836.691-1.236.037-.109.073-.145.146-.182.109-.145.29-.072.327.11a.461.461 0 01.036.218v1.236c-.109.982-.4 2.363-.654 3.308-.146.4-.327.655-.582.8-.473.218-.873.218-1.309.51-.254.108-.509.254-.727.436-.218.145-.4.327-.545.654-.291.473-.219 1.054.109 1.273.181.109.29.181.436.4.11.109.218.254.364.327.327.036.436.327.509.654 0 .11 0 .218.036.327.109.037.254.146.364.219.109.036.218.036.327 0l.363-.328.255-.29c.254-.182.473-.473.618-.728l.364-.436c.072-.036.145-.145.218-.218.181-.327.436-.655.545-1.09l.146-.292c.327-.727.4-1.2 1.308-1.418 1.128-.145 1.927-.145 3.454-1.054.073-.073.546-.8.546-.945-.182-.182-.582-.582-.91-.255-.654.655-1.308.836-1.744.91-1.346.217-1.636.544-1.673-.365zM316.301 24.565c-.036.11-.036.182-.145.218-.546.655-1.018 1.346-1.346 2.146-.327.654-.545 1.309-.618 2-.073.69-.036 1.345.037 2l.327.98c.363.619.8 1.091 1.454 1.164.473.073.982.11 1.49-.036.11-.073.292-.146.364-.146.4-.109.728-.363 1.018-.69.037-.11.146-.182.219-.219l.254-.181c.218-.146.364-.4.51-.618.254-.328.508-.655.69-1.091.254-.618.582-1.2.69-1.818.037-.073.073-.11.073-.182 0-.073.11-.109.219-.109h.109c1.309 0 4.654.036 5.744-1.127.146-.146-.218-.218-.109-.4.037-.073.073-.218 0-.327l-.254.145-.582.291c-1.745.29-2.436.036-4.218.145-.29 0-.509-.254-.4-.472.11-.4 0-.8.037-1.236 0-.037-.037-.328-.037-.473-.072-.29-.072-.545-.109-.873-.072-.363-.109-.727-.218-1.054-.145-.255-.218-.509-.327-.8-.182-.473-.4-.8-.727-1.09-.255-.146-.473-.364-.691-.546-.182-.145-.982-.873-1.273-.873-.4-.072-.836-.036-1.163.182-.436.255-.8.473-1.09.727-.146.037-.219.11-.255.182-.327.582-.51 1.164-.4 1.782.109.836.29 1.636.69 2.29.037.037.037.073.037.11zm4.327-.69c.436 2.436-1.491 3.163-2.545 1.09-.91-.981-1.855-2.872-.873-4.254.254-.254 1.054-1.018 1.49-.654.255.145.437.29.655.473.218.109.327.29.473.436.254.218.4.509.509.872.109.4.182.728.254 1.164.11.254.11.582.037.873zm-2.582 4.653c.473-.618.873-.945 1.709-.581-.109.254-.182.581-.364.872-.363.837-.8 1.673-1.418 2.327l-.145.11c-.036.036-.036.036-.073.036-.181-.073-.327-.255-.4-.437-.036-.072-.109-.109-.036-.181 0-.182 0-.4.036-.582.219-.655.291-.982.691-1.564zm3.781-3.999v.036c-.036-.145-.036-.109 0-.036zm.037.073s-.037 0-.037-.037c0 .037.037.037.037.037zM328.372 22.384c-.11.218-.145.363-.11.509.074.254-.035.4-.145.618 0 0-.072.109-.072.182-.218.509-.873 1.309-1.164 2.036-.436.727.328-.037.328-.037-.182.255-.219.473-.4.728-.037.036-.073.181-.11.181-.254.037-.181.219-.254.255 0 .218-.073.4-.11.582-.145.29-.072 1.127-.18 1.563 0 .182 0 .436.072.655 0 .472.182.981.363 1.454.328.363.691.654 1.055.8.545.218 1.018.727 1.527.545 1.6.618 4.072-1.563 4.436-2.036 1.236-.727 1.781-2.727 2.545-4.108-.51-.11-.11-.619-.291-.982-.11.182-.11.182-.11.218-.181.582-.581 1.018-.908 1.49-1.745 1.855-.655 2.255-3.672 3.346-.219.036-.4.109-.582-.037-.218-.072-.4-.218-.546-.29-.109-.146-.254-.291-.29-.546-.037-.327.109-2.181.109-2.545.036-.654.036-.509.327-1.236.036-.073.109-.182.109-.291.073-.364-.582 1.018-.436.582.181-.328.327-.764.472-1.091l.182-.545c.291-.582.546-1.018.764-1.491.109-.364.072-.618-.073-.8-.145-.145-.51-.327-.618-.473-.364-.218-1.273.437-1.673.51-.109.072-.181.108-.29.254l-.037.036c-.109.037-.145 0-.218-.036zm3.781-4.218c-.145-.254-.327-.436-.581-.545-.146-.036-.328-.073-.473-.146-.036-.036-.073 0-.146.037-.072.036-.145.036-.145-.037-.036-.036-.11-.036-.182 0-.073 0-.145.073-.218.146l-.218.327c-.11.218-.291.4-.291.618 0 .037-.109.11-.109.182-.11.182-.182.29-.255.473-.036.145-.109.254-.109.363l-.109.146c.146.036.255.036.4.036.11 0 .182 0 .291.073.146.072.291.109.51-.037.072-.072.18-.145.254-.109.181-.036.472-.181.545-.29l.364-.437c.072-.073.072-.145.072-.182.037-.145.11-.218.182-.327.073-.073.11-.182.218-.29zM336.262 38.454a1.15 1.15 0 00.69-.4c0-.036.037-.036.073-.072.218-.11.546-.219.691-.437l.291-.363c.29-.291 1.273-1.31 1.454-1.71.11-.254.291-.472.437-.69l.109-.073a.438.438 0 00.181-.181c.073-.219 0-.619.146-.837 0 0-.036-.036.036-.145-.036-.11.037-.182 0-.291.218-.873.218-.727.073-1.454 0-.982 1.09-.982 1.818-1.527l.4-.328c.4-.29.763-.654 1.163-.872l.146-.146.763-.654.473-.436c.182-.219.29-.51.473-.728.145-.218.254-.436.327-.69 0-.11.073-.182.109-.291.145-.218.109-.437.036-.655l-.145-.363-.546.618c-.218.254-.436.509-.69.727-.364.327-.764.654-1.164.945-.545.437-1.09.837-1.636 1.236-.945.255-2.109 1.237-2.436.437-.145-.146-.145-.546-.327-.691-.4-.4-.8-1.782-1.273-2.182-.109-.109-.29-.29-.363-.472-.11-.291-.11-.946.036-1.31l.29-.58c.037-.037.037-.11.037-.11-.036-.182.11-.29.146-.4a.99.99 0 01.29-.363c.146-.037.182-.146.255-.291.145-.291.218-.655.29-.946.074-.218.074-.436.074-.654-.073-.073-.073-.182-.073-.29-.036-.474-.618-1.819-.945-1.964-.037-.037-.073-.037-.073-.037a1.878 1.878 0 00-.655-.436c-.072-.073-.145 0-.254.145a.512.512 0 01-.218.255c-.073.036-.11.036-.146.11-.145.254-.363.472-.509.763l-.327.654c-.109.11-.145.218-.218.327-.073.218-.145.327-.218.51-.11.181-.146.436-.255.617.11.182 0 .4-.036.51-.145.218-.218.436-.182.654-.073.145-.036.218-.109.29 0 .655.69 3.31 1.018 3.782.036.145.146.254.182.4.363.654.727 1.272.945 2.109.437 1.09.655 1.454-.727 2.727-.69.618-1.309 1.345-1.89 2.181-.291.436-.51.836-.619 1.309-.072.182-.109.436-.109.582.073.4.11.763.327 1.054.146.146.182.364.255.582.145.29.29.363.582.182a.2.2 0 00.182-.11c.109 0 .181-.072.29-.072l-.072.182c.181.072.181.072.254.036.218-.073.4-.109.582-.254.036-.11.145-.11.218-.182.036.072.036.072.11.109v.109c.326-.218.326-.218.472-.218-.218.29-.437.545-.655.872zm-.546-4c.437-.435 1.746-2.108 1.746-.944 0 .036 0 .109-.037.109-.145.363-.109.727-.29 1.054-.11.327-.255.654-.437.945-.036.073-.073.182-.145.255a2.713 2.713 0 01-.8.981l-.437.473-.436.364c-.145.145-.29.109-.4.036l-.436-.509c-.11-.109-.146-.254-.073-.473.073-.181.073-.363.11-.581.072-.182.217-.328.363-.473.145-.11.254-.254.363-.473.11-.254.328-.472.546-.545a.754.754 0 00.363-.218zM366.694 34.346a.384.384 0 00-.073.182c-.218-.037-.364-.182-.545-.291.072-.11.181-.073.29-.11-.4-.363-.763-.69-1.017-1.2-.11-.108-.219-.254-.182-.472.036-.073-.037-.218-.11-.327-.036-.146-.072-.255-.218-.364-.145-.472-.29-.945-.327-1.454-.036-.218.037-.436-.072-.654-.037-.037-.037-.073-.037-.146v-.945c.037-.218.073-.473 0-.727-.036-.182 0-.364 0-.546.073-.073.11-.182.073-.254 0-.255.073-.473.036-.691.11-.327.182-.582.218-.873.037-.29.11-.618.182-.909.037-.145.073-.29.218-.4.182-.363 0-.472.291-.836.327-.4.691-.836.836-1.345.11-.218.291-.4.473-.582.218-.145.436-.363.546-.654.109-.364.29-.691.581-.982.182-.254.327-.582.437-.909.036-.218.109-.4.181-.618a8.88 8.88 0 00.364-.873c.145-.327.29-.618.473-.872.109-.182.181-.4.218-.618.036-.073 0-.146.036-.218.182-.291.182-.619.182-.91l.109-.8c.073-.4 0-.8-.036-1.2-.037-.108-.073-.217-.146-.29-.363-.218-.582-.509-.909-.69-.472-.255-.981-.328-1.418 0-.29.217-.582.4-.909.58-.145.11-.327.22-.436.328-.29.291-.618.582-.945.836-.328.328-.582.728-.837 1.127-.254.546-.545 1.091-.836 1.6-.073.218-.109.4-.218.582-.11.327-.255.654-.4.982-.073.254-.145.509-.254.727l-.182.472c-.546 1.019-.291 3.89-1.6 2.11l-.618-.255c-.11-.037-.182-.073-.291-.073-.218.036-.473.036-.654.145-1.018.328-1.927.873-2.618 1.637-.691.69-1.2 1.527-1.673 2.327-.436.763-.618 1.636-.836 2.508-.109.437-.109.946-.109 1.418-.036.11 0 .255 0 .4.036.146.073.255.073.4-.037.436.072.873.29 1.273.291.654.728 1.163 1.382 1.49.436.255.945.4 1.382.51.327.072.727 0 .945-.219.146-.145.291-.182.473-.254.618-.182.981-.618 1.127-1.273.073-.29.182-.545.363-.763l.219-.218c0 .072.072.109.109.181-.037.182 0 .4.036.582.036.364.11.69.182 1.018.036.291.182.582.145.836 0 .218 0 .328.146.51.072.036.072.108.109.181.073.473.327.873.509 1.273.327.545.69 1.09 1.236 1.49.618.728.654.582 1.382.873.363.145.654.182.981.182.073-.073.11-.182.146-.218.436-.182.763-.437 1.2-.655.254-.182.581-.363.763-.582.29-.181.51-.436.727-.69l.437-.618c.181-.291.327-.582.436-.91a.867.867 0 01.218-.4l.509-.69c0-.037.036-.073.11-.11.108-.545.035-.617.69-1.49l.327-.4c-.473-.473-.145.036 0-.545.327-.727.8-.91 1.273-1.636.581.181.181-.655.509-.873.145-.182.29-.4.072-.69-.072.072.619-.583.364-.583 0-.654.582-.472.145-.8-.69-.508-.545.037-.981.8-.727 1.237-1.31 2.51-2.182 3.709-.654 1.273-.618 1.745-.981 2.29a5.787 5.787 0 00-.473.8c-.4.619.145.073-.291.655-.073.109-.182.182-.254.254-.364.146-.4.328-1.128.437zm-.582-13.017c-1.527 1.6-.69-.763-.436-1.963.109-.873.545-1.563.763-2.436.037-.254.146-.509.255-.763.072-.219.109-.4.072-.619 0-.181.073-.29.255-.4.182-.181.364-.4.473-.69.145-.218.254-.437.218-.691 0-.11.073-.218.109-.327.182-.255.436-.51.545-.837.037-.109.146-.145.218-.218.255-.145.4-.109.546.218.036.219.073.437.073.655-.037.945-.073 1.89-.437 2.727-.073.145-.073.327-.073.472 0 .219-.036.364-.109.546-.327.618-.618 1.2-.872 1.818-.255.472-.582.872-.873 1.272-.29.4-.472.8-.727 1.236zm-6.944 5.09c1.127-1.89 1.636-1.09 1.018.946a2.686 2.686 0 000 .763l-.073.728c0 .072-.036.145-.036.218-.146.29-.328.545-.546.763-.327.364-.69.727-.982 1.091-.181.182-.363.4-.654.51-.036-.037-.109-.074-.109-.146-.364-.691-.29-1.382-.145-2.036l.509-1.018.181-.328c.291-.545.437-1.054.837-1.49zm3.635 8.981c-.072 0-.145.037-.109.037l1.346 1.018c.109.072.145.145.254.254-.145 0-.254 0-.29-.036-.619-.182-1.019-.546-1.419-1.018l-.145-.291s-.037-.037-.037-.073c-.072-.036-.109-.073-.109-.109l.073-.036.11.109c0 .036-.037.109 0 .145zm2.873-1.09c-.11-.073-.218-.11-.218-.219-.291-.327-.51-.69-.8-1.054.145-.073.145 0 .181.036.255.255.437.51.546.8.109.11.254.218.29.291zm-.691-1.964c-.073 0-.073-.073-.073-.109-.218-.364-.436-.764-.545-1.236.254.218.254.436.363.654.11.255.182.437.255.691zm.982 1.636c.109.073.072.182.109.255a.84.84 0 00-.255-.255c.11-.073.146-.036.146 0zm-1.6-.545c0-.037 0-.037-.037-.073l.037-.036c0 .036.073.072.073.109zm.69-.982h-.072c.036-.036.036-.073 0-.109zm-.908.4c-.037 0-.037 0-.11-.036h.073zm-.4 3.163h-.037c0-.036.037-.036.037-.036zm.472-2.945v.037h-.036zM375.82 25.038c.109-.11.218-.073.254.036.182.291.327.618.473.91.036.108.109.181.036.327 0 .036.037.145.073.181.218.11.4.437.69.4 0 0 .037 0 .037.037.073.145.182.109.291.145.218.036.473 0 .69-.109.255-.073.51-.255.655-.545.146-.255.291-.473.364-.728.109-.29.254-.509.4-.763.254-.436.472-.909.545-1.418.11-.473.073-.873 0-1.309-.036-.109-.073-.254-.145-.327-.255-.218-.4-.582-.582-.91-.073-.145-.145-.29-.254-.363-.328-.218-1.71-.581-2.073-.763-.073-.073-.109-.218-.218-.291-.073-.073-.218-.036-.327-.146-.11-.181-.291-.145-.473-.072l-.364.182a8.258 8.258 0 00-1.636 1.381 10.042 10.042 0 00-1.345 1.673c-.4.581-.727 1.2-1.018 1.854-.109.254-.254.473-.254.8.181-.327.327-.618.436-.946.073-.218.182-.29.363-.4.037.328.037.328-.072.546-.473 1.018-.764 2.109-.764 3.236.037.545.073 1.054.255 1.527.109.29.29.582.509.763.581.51.836 1.127 2.108 1.637.473.181 2.618.581 3.127.509.437-.037.873-.11 1.31-.255l.326-.11c.4-.072.8-.254 1.164-.472.218-.145.436-.254.654-.363l.437-.291c.181-.11.327-.255.509-.4.363-.291.727-.582 1.054-.945.182-.219.4-.437.618-.619a2.11 2.11 0 00.364-.436c-.073-.036-.073-.073-.11-.109.037-.182.219-.218.255-.436l-.29.109.145-.218.363-.437c.146-.29.328-.509.546-.763a.792.792 0 00.182-.291c.145-.29.218-.582.29-.909-.218.073-.327.255-.436.436-.327.473-.69.873-1.09 1.273l-.655.727-.11.11c-.617.508-1.199 1.054-1.817 1.526-.8.618-1.636 1.091-2.509 1.345-.182.037-1.236.219-1.418.182-.582-.036-1.2-.69-1.709-1.2-.109-.145-.4-.945-.509-1.09a1.737 1.737 0 01-.145-.655c0-.254 0-.472-.037-.727-.036 0-.072-.036-.145-.073l.11-.763h.072c0 .073 0 .182-.037.29h.255v-.036c-.036-.036-.073-.036-.145-.036.036-.218.036-.255.109-.29.109-.037.145-.074.181-.219 0-.11.073-.145.11-.182.072-.036.145-.109.145-.182 0-.218.145-.363.182-.545zm1.963-2.581c.545-.437 1.709-.764 1.127.618-.218.618-.363.727-.618 1.345-.145.254-.327.509-.582.582-.29.036-.581.072-.8-.182-.072-.11-.218-.182-.327-.255-.182-.109-.218-.29-.072-.545l.254-.4c.327-.4.618-.873 1.018-1.163zm-5.526 6.362c.109.182.109.4.218.618.072.182.182.328.29.51-.072 0-.108.036-.108 0a.586.586 0 01-.255-.146c-.109-.145-.218-.255-.29-.4-.4-.764-.437-1.636-.292-2.581l.11-.51c.036-.145.108-.29.218-.508v.254c0 .11-.037.218-.073.327-.146.546-.146 1.055-.146 1.6 0 .036-.036.073 0 .11.073.472.146.944.328 1.308 0 .036.036.036.072.073.073-.146-.036-.218-.036-.328l-.11-.29s.037-.037.074-.037zm0-2.4c.109.219.072.473.036.728l-.11 1.127c-.035-.036-.072-.036-.072-.073-.073-.545-.109-1.09.073-1.672 0-.037.036-.073.073-.11zM399.453 28.165c-.328 1.236-.146 1.854.036 2.981.218 1.236 3.163 1.091 3.854.691.11-.073.182-.182.473-.11.109-.108.145-.144.4-.254.327-.181.4-.218.654-.472.327-.146.364-.255.69-.327.728-.582 1.673-1.6 2.146-2.218.182-.073.146-.182.218-.255.255-.218.582-1.381.873-1.6l.218-.436c.145-.254-.145-1.345-.509-.69-.4.581-.618 1.017-.873 1.454-.69 1.127-2.181 2.545-3.017 2.908-1.273.4-2.545.073-2.436-.4 0-.145.145-.8.436-2.036.218-.29.182-.69.327-1.018.146-.29.291-.618.255-.836.218-.327.145-.073.254-.327.327-.8.364-1.527.618-2.218-.109-.073-.036-.218-.109-.364-.327-.181.146-.218-.4-.181-.145-.037-.109-.073-.472.036-.219.29-.364.509-.473.836-.291.4-.618.836-.836 1.31-.182.399-.218.254-.437.726-.109.182-.181.4-.436.655-.29.363-.473.181-.763.581-.473.582-1.637.618-2.51 1.091-.217.073-.29-.545-.435-.727-.182-.145 0-.69.072-.982.182-.363.255-.69.327-1.054.073-.218.146-1.236.328-1.49.218-.873 1.018-2.582 1.236-3.491 0-.146.036-.291-.073-.364-.145-.145-.145-.327-.29-.363-.183-.255-.437-.4-.8-.4-.364.036.036.29-.51.581-.181.182-.436.182-.69.291-.182.11-.364.182-.473.437-.291.436-.473.836-.655 1.236-.327.763-2.29 3.781-2.472 4.617-.218.582-.29 1.236-.182 1.527.182 1.2.218 1.455 1.127 2 .255.146 1.091.327 1.418.327.4-.109 1.2-.072 1.818-.4.618-.4 1.564-.909 2.073-1.418zM415.087 26.965c.109-.182.254-.436.327-.618.182-.291.327-.618.545-.91.219-.363.51-.654.837-.98.29-.328.509-.692.69-1.128.146-.327.328-.545.546-.8.363-.29.727-.654 1.09-1.018.146-.109.255-.182.328-.29.145-.146.29-.146.4-.037.073.218-.037.4-.182.545-.254.51-.582.946-.836 1.418-1.055 1.527-1.927 3.127-2.509 4.945-.145.4-.218.764-.218 1.164-.036.509.073.836.327 1.09.218.255.473.437.764.473.618.073 1.272-.11 1.854-.582.145-.145.254-.29.364-.436.327-.364.763-.582.981-1.018.073-.11.146-.11.182-.182.436-.327.836-.618 1.163-1.018.073-.145.182-.182.255-.254l.873-.728c.181-.145.363-.254.545-.145.145-.182.218-.364.364-.509.218-.327.218-.327.254-.69.145-.11.327-.183.509-.255.182-.037.327-.291.545-.328 0 .11.037.146 0 .219 0 .109-.036.254-.072.363-.328.873-.546 1.745-.727 2.654-.146.546-.146 1.091.036 1.527.218.51.8.91 1.163 1.237.182.145 1.055.218 1.237.218.4 0 1.927-1.091 2.108-1.491.073-.036.182-.073.182-.182.255-.254.473-.509.8-.727.036-.073.145-.182.145-.327.182-.436.4-.8.619-1.2.072-.073.072-.182.145-.182.11.073.29-.69.29-.545.074-.618-.108-.291 0-.836.037-.037 0-.037-.072-.146-.109.11-.182.291-.218.473-.509.872-1.054 1.709-1.709 2.436-.363.472-2.254 1.818-2.8 1.709-.181-.073-.254-.182-.254-.437a6.219 6.219 0 010-1.163c.073-.4.145-.836.182-1.273.145-.181 0-.472.218-.581.109-.291.182-.546.182-.8a3.798 3.798 0 010-.91c-.146-.181-.255-.363-.437-.436-.254-.109-.327-.363-.509-.509-.145-.145-.327-.181-.545 0-.109.11-.182.182-.29.219-.655.363-1.273.872-1.855 1.418-.618.654-1.273 1.236-2 1.636a.78.78 0 01-.254.145c.072-.4.218-.727.29-1.054.328-.764.546-1.527.8-2.364.11-.4.11-.763.037-1.127-.037-.29-.11-.509-.182-.763-.11-.291-.218-.51-.4-.655-.29-.254-.545-.581-.836-.872-.073-.073-.182-.11-.327-.182-.255-.036-.582 0-.91.145-.108.037-.254.146-.4.291-.763.837-1.526 1.673-2.217 2.618-.218.327-.436.545-.691.836-.618.727-1.2 1.455-1.854 2.182l-1.127 1.309c-.037.036-.11.036-.182.072.145-.29.218-.581.254-.836.073-.073.073-.109.073-.109 0-.036.036-.073.036-.073.328-.727.546-1.454.764-2.181l.145-.545c.146-.291.219-.619.364-.91.182-.363.218-.8.145-1.2l-.181-1.054c-.146-.618-.473-1.127-.728-1.672 0-.073-.109-.146-.181-.182-.437-.254-.837-.545-1.237-.8-.145-.145-.327-.145-.509-.109-.145.291-.218.51-.363.727-.436.764-.873 1.564-1.09 2.4-.037.109-.074.145-.074.254-.472.982-.872 2.037-1.345 3.018-.218.546-.436 1.09-.618 1.709-.29 1.127-.509 2.254-.582 3.381-.072.182-.072.364-.072.546.072.8.29 1.418.872 1.745.364.182.727.218 1.127.218.437-.036.837-.218 1.236-.436.182-.146.364-.291.546-.327.109 0 .182-.11.182-.146.109-.254.29-.363.4-.509.254-.218.509-.436.654-.8.145-.218.327-.4.51-.654.035-.073.072-.11.072-.182a.633.633 0 01.363-.473c.146-.145.219-.327.4-.509.328.073.51-.145.655-.509 0-.036 0-.072.036-.072.036-.11.146-.11.182-.073.036 0 .109.073.145.073z" stroke-width=".03636"/></g></svg>