<svg width="320" height="106" viewBox="0 0 320 106" xmlns="http://www.w3.org/2000/svg"><g stroke="#000"><path d="M50.583 52.48c-.38.228-.152-1.137-.38-.834-.379.531-1.593 1.214-1.972 1.745-.683.987-2.807 2.504-3.49 3.415l-1.139 1.366c-.986 1.138-3.11 2.655-4.249 3.642-1.441 1.29-5.008 2.807-6.677 3.035-.531.076-2.428.835-2.808.38-.227-.304-.455-.608-.607-.911l-.683-1.518c-.227-.53-.303-1.062-.227-1.593.076-.455.076-.835.227-1.214.38-1.29.76-2.58 1.366-3.718l1.821-3.794c.456-.987.987-1.897 1.594-2.732.607-.834 1.366-1.593 1.82-2.58l.304-.227c-.075.227-.075.38-.075.455-.607 1.442-.987 2.883-1.442 4.4l-.228 1.063c-.076.38.076.607.304.759l.227.152c.456.227.987.455 1.366.834.076.076.228.152.455.152.152 0 .304-.076.456-.076.455-.076.759-.38.986-.91a21.06 21.06 0 001.29-3.87c.076-.38.076-.759.076-1.138 0-.683-.076-1.442-.228-2.125-.151-.455-.227-.91-.303-1.366l.455-.683c-.076-.075 0-.227-.076-.303-.152-.304-.227-.607-.076-.986.076-.38-.076-.607-.303-.835-.228-.152-.38-.076-.607.076-.076.076-.152.076-.228.076-.076 0-.152-.076-.227-.076-.76-.531-1.594-.835-2.504-.759 0 .076 0 .076-.076 0-.532-.076-1.139.076-1.746.38-.227.075-.455.151-.682.151-.532 0-1.063.152-1.594.531-.986.683-1.821 1.518-2.732 2.277-.758.607-1.365 1.441-1.972 2.352l-.607.91c-.76 1.442-1.67 2.808-2.2 4.477l-.608 1.594c-.228.758-.38 1.517-.455 2.276a16.504 16.504 0 000 3.87c.227 2.2.986 3.794 2.428 4.932.91.683 1.897 1.214 2.96 1.67.986.379 3.262 1.365 4.324 1.137.683-.227 3.187.076 3.87 0 .607 0 3.339-1.441 3.87-1.745a15.007 15.007 0 002.58-1.897l2.428-2.58c.531-.607.986-1.365 1.517-2.124.076 0 .076-.152.076-.228.38-.834.835-1.593 1.366-2.352l1.366-1.897c.455-.531 1.517-2.352 1.67-3.035zM74.94 53.012c-.986.986-2.504 3.49-3.49 4.477l-1.214 1.062-1.67.987c-.455.303-.986.53-1.441.758-.531.228-1.063.304-1.594.38a.797.797 0 01-.683-.38 9.513 9.513 0 01-.683-1.897 2.93 2.93 0 01.228-1.593l1.062-2.125c.076-.151.152-.227.152-.38-.076-.758-.152-1.517-.683-2.2l-.455-.455c-.455-.531-.986-.607-1.67-.531l-1.593 2.58c-.38.607-.834 1.138-1.29 1.67l-.607.682c-.303.531-.683.91-1.138 1.29a23.59 23.59 0 00-2.504 2.2l-.303.228c0-.152-.076-.227 0-.303.151-.835.455-1.67.91-2.504.076-.152.152-.304.304-.456l.758-1.062c.607-.835 1.139-1.67 1.822-2.428l.91-.986c.683-.987 1.67-1.746 2.504-2.58v-.076c.607-.455 1.214-.91 1.897-1.214.683-.38.835-.835.683-1.518l-.228-.607c-.303-.531-.834-.91-1.29-1.366a.58.58 0 00-.38-.151c-.378 0-.682-.38-1.061-.38 0 0-.076 0-.152-.076-.152-.303-.455-.303-.835-.38-.152 0-.303-.075-.455-.15-.531-.153-1.138-.153-1.593-.38h-.228c-.531 0-.987.076-1.442.152-.227 0-.531.075-.683.151a12.599 12.599 0 00-2.883 2.353c-1.138 1.365-2.352 2.807-3.339 4.325-.076.075-.152.151-.152.227-.758.835-1.29 1.821-1.82 2.808-.532 1.062-.76 2.2-.608 3.414.228 2.353 1.442 4.022 3.643 4.932.379.152.758.304 1.138.532.986.53 2.048.53 3.11.227.608-.227 1.215-.303 1.67-.91 0 0 .076-.076.152-.076l.834-.531c.456-.38.987-.683 1.594-.987.455.607 1.138.987 1.821 1.29l.38.228c.758.607 1.669.759 2.58 1.062h.682c.607-.152 1.214-.152 1.745-.38.607-.227 1.214-.227 1.897-.379a3.78 3.78 0 001.442-.759c.455-.455 1.062-.91 1.518-1.441.075-.152.227-.228.379-.304.38-.227.683-.455.91-.91.076-.228.304-.38.456-.531l.834-.987c.152-.076.228-.303.456-.38.38-.303 1.138-2.124 1.214-2.655-.38-.38-.759-.683-1.29-.759zM90.04 46.335c.607-.38 1.138-.531 1.67-.835.455-.228.834-.531.986-.986 1.67-2.277 2.883-4.629 3.945-7.209.456-1.29.683-2.2.228-3.49.304-1.366-.455-2.352-.683-3.339-.227-.303-.53-.455-.53-.683-.76-.683-1.594-1.366-2.733-1.517-.303.075-.607-.076-.91-.152-.987-.38-3.035.227-3.946 1.062-.683.531-1.897 1.67-2.428 2.2-.683.152-1.214.684-2.428 2.656-.304.456-2.504 3.415-2.732 3.87-.151.228 1.821-2.124 1.67-1.897-3.187 6.146-7.588 16.238-7.892 17.756 0 .38-.303.607-.38.986-1.061 2.656-1.213 2.96-1.744 4.856-.152.835-.38 1.594-.683 2.504-.076.228-.152.456-.152.607-.152.456-.38.835-.38 1.29-.151.304-.227.683-.303 1.139-.152.455-.152.834-.227 1.365-.532 1.821-.987 3.794-1.442 5.691-.228 1.366-.607 2.656-.38 4.022 0 .076-.075.152-.075.152-.152 1.365-.076 2.655-.076 3.718 0 1.062.076 2.124.303 3.035l.38.91c0 .987.455 1.897.986 2.428.304.304.759.76.986.91.456.38 1.063.608 1.594.38l.607-.151c.228.075.228-.152.38-.152.227 0 .606-.152.91-.076.455-.076.835-.38 1.062-.986.607-1.139 1.062-2.05 1.594-3.34l.227-.454c.304-.304.607-.683.607-1.29v-.531c.531-.76.835-1.822 1.214-2.96.076-.53.304-1.214.456-1.82.227-.38.227-.76.227-1.215 0-.076 0-.228.076-.303.076 0 .152-.152.228-.152 0-.076.076-.076.076 0 .075-.531.227-.91.379-1.29-.076-.531.076-.987.152-1.366 0-.607.227-1.138.38-1.745 0-.38.075-.91.227-1.366 0-.986 0-1.67.076-2.58-.076-.303 0-.607 0-.986-.076-1.518-.076-3.187-.228-4.932-.455-3.111 6.07 2.2 13.658-.531l1.442-.911c3.035-2.352 5.235-6.298 1.897-4.553-.987-.076-2.656 3.567-3.566 3.567-.911.53-.911.607-.911.607-.076 0-.304.075-.986.303l-1.139.304c-.91.303-1.972-.38-3.11-.38-.684.152-3.34-1.138-4.25-.986-1.138-.304-.607-1.745-.227-2.656.986-2.58.379-1.517 1.441-4.021.531-.987.91-2.201 1.29-3.263.683-1.594 1.442-3.263 1.973-5.16.228-.759.531-1.442.683-2.049l1.67-4.552c.303-.911.758-1.822 1.062-2.732 1.214-2.656 1.972.228 1.82 1.745-.227 2.049-.682 3.642-1.365 5.388-.607 1.214-1.29 2.58-1.897 3.945-.304.607-.607 1.29-.759 2.2zm-12.216 18.59c.227-1.138 1.138-3.946.91.607-.227 2.428-.152 2.049-.531 4.4-.228 1.974-.455 4.022-.759 5.844a18.069 18.069 0 01-.38 1.972 41.22 41.22 0 00-.834 2.884c-.455 1.138-.152.607-.607 1.67-.152.378-.683 2.351-1.442.834-.075-.228-.151-.38-.151-.607 0-.607.076-1.366.076-2.125 0-.531.227-1.138.379-1.67.152-.454.228-.986.303-1.365.152-.759.38-1.29.38-1.973.076-.38.228-.683.303-.986.076-.456.38-.683.228-1.214.228-.607.38-1.214.531-1.821.076-.683.304-1.366.455-2.125 0-.531.076-.986.228-1.442l.683-2.2zm5.539-28.303c-.304.683-1.973 3.263-2.428 4.098-.228.607-.456 1.365-.91 2.124v-.227c.15-.456 0-.683.227-1.214.227-.683.455-.987.683-1.973a32.952 32.952 0 015.16-7.664c.303-.607.682-.759 1.062-1.062.38-.38.53-.456 1.138-.91l-.683.758c0 .38-.455.531-.607.683-.987 1.062-2.125 2.428-3.415 4.097 0 0-.151 0 .076.304-.91 1.442-2.048 2.807-2.731 4.325 0 0-.076.152-.076.455.38-.227.53-.759.607-1.138.152-.152 1.67-2.428 1.82-2.883zM80.1 41.175c-.228.91-.455 1.67-.835 2.352-.455.987-.834 2.2-1.441 3.263v-.455c.53-1.821 1.29-3.642 2.048-5.008.076-.076.228-.152.228-.152zm.228 33.31c-.076 0-.076.152-.076.228h.076zm0 0c0-.075 0-.075.075-.075 0-.076-.075-.076-.075-.076zM103.319 52.253c.227-.227.455-.152.53.076.38.607.684 1.29.987 1.897.076.228.228.38.076.683 0 .076.076.303.152.38.455.227.835.91 1.442.834 0 0 .076 0 .076.076.151.303.379.228.607.303.455.076.986 0 1.441-.227a2.215 2.215 0 001.366-1.138c.304-.532.607-.987.759-1.518.228-.607.531-1.062.835-1.593.53-.911.986-1.897 1.138-2.96.227-.986.151-1.82 0-2.731-.076-.228-.152-.531-.304-.683-.531-.455-.834-1.214-1.214-1.897-.152-.304-.303-.607-.531-.759-.683-.455-1.062-1.214-1.821-1.593-.152-.152-.228-.456-.455-.607-.152-.152-.456-.076-.683-.304-.228-.38-.607-.303-.987-.152l-.758.38c-1.215.758-2.353 1.745-3.415 2.883a20.957 20.957 0 00-2.808 3.49c-.834 1.215-1.517 2.504-2.124 3.87-.228.531-.531.987-.531 1.67.38-.683.683-1.29.91-1.973.152-.456.38-.607.76-.835.075.683.075.683-.153 1.138-.986 2.125-1.593 4.401-1.593 6.753.076 1.139.152 2.2.531 3.187.228.607.607 1.214 1.062 1.594 1.214 1.062.76 1.897 3.415 2.96.986.378 3.946 1.668 5.008 1.517.91-.076 1.82-.228 2.731-.532l.683-.227c.835-.152 1.67-.531 2.428-.987.456-.303.911-.53 1.366-.758l.91-.607c.38-.228.684-.532 1.063-.835.759-.607 1.518-1.214 2.2-1.973.38-.455.835-.91 1.29-1.29.304-.303.532-.531.76-.91-.152-.076-.152-.152-.228-.228.076-.38.455-.455.53-.91l-.606.227.303-.455.76-.91c.303-.608.682-1.063 1.137-1.594.152-.152.304-.38.38-.607.303-.607.455-1.214.607-1.897-.456.152-.683.531-.91.91-.684.987-1.443 1.821-2.277 2.656l-1.366 1.518-.228.227c-1.29 1.063-2.504 2.2-3.794 3.187-1.669 1.29-3.414 2.277-5.235 2.808-.38.076-2.58.455-2.96.38-1.213-.077-2.503-1.443-3.566-2.505-.227-.303-.834-1.973-1.062-2.276-.152-.38-.304-.835-.304-1.366 0-.531 0-.986-.075-1.518-.076 0-.152-.075-.304-.151l.228-1.594h.151c0 .152 0 .38-.075.607h.53v-.076c-.075-.076-.151-.076-.303-.076.076-.455.076-.53.228-.607.227-.075.303-.151.38-.455 0-.227.151-.303.227-.38.152-.075.303-.227.303-.379 0-.455.304-.758.38-1.138zm7.36-11.761c.152-.076.228-.076.304-.076 1.29-.683 2.428-1.593 3.49-2.58.91-.834 1.821-1.82 2.656-2.807.227-.38.455-.683.758-.91.076-.228.076-.304-.075-.38-.152-.228-.456-.38-.532-.607 0-.076-.151-.152-.151-.076-.152-.152-.304-.304-.456-.38-.758-.53-1.972-.227-2.504.532l-.91 1.441c-.228.532-.38.987-.455 1.518-.076.303-.076.607-.228.835-.152.303-.228.607-.455.834-.38.38-.683.91-.91 1.29-.153.152-.304.38-.228.607 0 .152 0 .38-.228.607-.076 0-.076.076-.076.152zm-3.263 6.374c1.138-.91 3.567-1.594 2.352 1.29-.455 1.29-.758 1.517-1.29 2.807-.303.531-.682 1.063-1.214 1.214-.607.076-1.214.152-1.669-.38-.152-.227-.455-.378-.683-.53-.38-.228-.455-.607-.152-1.138l.532-.835c.683-.835 1.29-1.821 2.124-2.428zm-9.03 13.279c.228.379.228.834.456 1.29.152.379.38.682.607 1.062-.152 0-.228.076-.228 0-.227-.076-.379-.152-.53-.304-.228-.303-.456-.53-.608-.834-.834-1.594-.91-3.415-.607-5.388l.228-1.062c.076-.304.227-.607.455-1.062v.53c0 .228-.076.456-.152.684-.303 1.138-.303 2.2-.303 3.338 0 .076-.076.152 0 .228.152.986.303 1.973.683 2.732 0 .075.076.075.151.151.152-.303-.075-.455-.075-.683l-.228-.607s.076-.075.152-.075zm0-5.008c.228.455.152.986.077 1.517l-.228 2.352c-.076-.075-.152-.075-.152-.151-.152-1.139-.227-2.277.152-3.49 0-.077.076-.153.152-.228zM116.218 86.247c-.38.076-.531 0-.607-.304.38.759.835 1.29 1.745 1.518.228.076.456.152.835.152.228 0 .455.227.835.227.076.076.151.076.455.076.759.076 1.67-.076 2.504-.38.455-.151.835-.303 1.29-.379.759-.227 1.67-.53 2.352-1.062a1.17 1.17 0 01.531-.531c.455-.228.759-.38.987-.607.607-.38.986-.683 1.517-.835.91-.607 1.594-1.214 2.352-2.049.228-.075.228-.075.228-.151.228-.38.607-.531.683-.683.455-.531.835-1.063 1.138-1.366.076-.759.683-.986 1.214-1.442.076-.151.304-.227.38-.303 0-.304-.076-.456-.076-.683.076-.455.53-.607.683-1.062.151-.076.379-.304.455-.456.076-.607.531-1.062.835-1.669.455-.228 1.214-1.821 1.138-2.2-.152-.608.38-1.139.607-1.67.227-.38.455-.531.53-.986.38-.38.684-.835.608-1.518 0-.152.228-.531.303-.759.456-1.214.607-2.276.683-3.414.152-1.214-.076-.683-.151-1.897-.152-.531-.304-1.214-.532-1.821-.151-.683-.607-1.214-1.062-1.897-.152-.228-1.366-.987-1.82-1.138-.077-.228-.077-.607.227-.683.227-.304.455-.531.607-.835l3.187-2.807 1.365-1.67c.76-1.366 1.366-2.731 1.973-4.097.683-1.062.76-2.277.456-3.187-.076-.91-.152-2.125-.987-2.883-.683-1.366-2.276-1.746-3.642-2.353-.228-.076-.38-.076-.607-.076-.607 0-1.442 0-2.049.152-1.366.304-2.58.759-3.794 1.063-1.517.455-3.187 1.214-4.552 1.896-2.2 1.063-4.401 1.822-6.754 2.58-.607.076-1.593.304-2.428.152l-.076.152v.455c.152.455.456 1.29.76 1.821.606 1.442 2.883 1.518 4.476 1.214 3.339-2.428 6.374-5.311 10.547-6.601 1.518-.91 3.339 1.214 1.67 3.718-3.263 3.718-7.588 6.98-10.851 10.775 0 .075-.152.227-.228.379-1.138 1.442-1.138 1.442-2.883 1.821-.304.38-.531.38-.91.607-.304.455 0 .607.379.683.151.228.53.607.53.91.608.683 1.67.835 2.732.835.835 0 1.518.531 2.429 0 .682.076 1.214 0 1.897-.152.758-.151 1.214 0 1.896 0 .835.152 2.808.304 2.884.835.076.455.076.91-.076 1.442 0 1.29-.076 1.062-.38 2.58-.606 1.441-1.062 2.959-1.669 4.477 0 0 0 .151-.076.303l-.834 1.366c-.228.607-.607 1.214-.835 1.973-.607.91-1.138 1.669-1.897 2.58-.607.91-1.366 1.745-2.2 2.655-.38.531-.987 1.214-1.594 1.897-.607.531-1.366 1.063-2.2 1.594-.987.53-1.821.758-2.656.53h-.455c-.607 0-.683-.15-.683-.53.076-.531.076-1.063.303-1.442.076-.835.38-1.593.835-2.2.607-1.063 1.29-2.277 1.973-3.187 1.517-1.594 2.656-3.339 4.173-4.857l-.228.228c-.151.076-.455.304-.53.304-.228.075-.532.227-.684.379-.151.303-.53.531-.758.91-.076.076-.304.152-.38.076.607-.758 1.138-1.593 1.897-2.2.607-.531 1.063-.91 1.594-1.594.227-.303.607-.607.758-.834.835-.531 1.366-1.29 2.125-1.897.455-.304.607-.759.91-1.214.304-.228.456-.607.304-1.138-.91.683-1.973 1.138-2.732 1.897-1.82 1.062-3.338 2.276-4.78 3.642-.759.759-1.593 1.441-2.352 2.124l-1.67 1.746c-1.972 2.124-3.642 4.552-4.78 6.98a41.687 41.687 0 00-1.138 2.732c-.152.531 0 .91.304 1.29.303.152.455.455.53.91l.304.683v-.076c.304-.075.455 0 .683.456zm3.111-8.347c.607-1.062 1.442-2.124 2.352-3.035.38-.607.835-.835 1.29-1.29.228.228-.151.304-.227.455-.683.76-1.29 1.442-1.897 2.277-.456.303-.683.758-.91 1.214-.153.227-.38.303-.608.38zm0 0c0 .38-.227.835-.683 1.214.076-.303.076-.303.683-1.214zm7.512-7.057l.304-.227c0-.076.379-.152.303-.304zm-9.105 9.637h.076c-.076 0-.076 0-.076.076zM152.716 46.714c-.228.455-.304.759-.228 1.062.152.532-.076.835-.303 1.29 0 0-.152.228-.152.38-.456 1.062-1.821 2.731-2.428 4.249-.91 1.517.683-.076.683-.076-.38.531-.456.986-.835 1.518-.076.075-.152.379-.228.379-.53.076-.38.455-.53.531 0 .455-.153.835-.229 1.214-.303.607-.151 2.352-.379 3.263 0 .38 0 .91.152 1.366 0 .986.38 2.048.759 3.035.683.759 1.441 1.366 2.2 1.67 1.138.455 2.125 1.517 3.187 1.137 3.339 1.29 8.498-3.262 9.257-4.249 2.58-1.517 3.718-5.69 5.312-8.574-1.063-.228-.228-1.29-.607-2.049-.228.38-.228.38-.228.456-.38 1.214-1.214 2.124-1.897 3.11-3.642 3.87-1.366 4.705-7.664 6.981-.455.076-.834.228-1.214-.076-.455-.151-.834-.455-1.138-.607-.228-.303-.531-.607-.607-1.138-.076-.683.228-4.552.228-5.311.076-1.366.076-1.063.683-2.58.075-.152.227-.38.227-.607.152-.759-1.214 2.124-.91 1.214.38-.683.683-1.594.986-2.276l.38-1.139c.607-1.214 1.138-2.124 1.593-3.11.228-.76.152-1.29-.152-1.67-.303-.303-1.062-.683-1.29-.986-.759-.456-2.655.91-3.49 1.062-.228.152-.38.228-.607.531l-.076.076c-.228.076-.304 0-.455-.076zm7.891-8.802c-.303-.531-.683-.91-1.214-1.138-.304-.076-.683-.152-.986-.304-.076-.075-.152 0-.304.076s-.303.076-.303-.076c-.076-.075-.228-.075-.38 0-.152 0-.303.152-.455.304l-.455.683c-.228.455-.607.835-.607 1.29 0 .076-.228.227-.228.38-.228.379-.38.606-.531.986-.076.303-.228.53-.228.758l-.227.304c.303.076.53.076.834.076.228 0 .38 0 .607.152.304.151.607.227 1.062-.076.152-.152.38-.304.532-.228.379-.076.986-.38 1.138-.607l.759-.91c.151-.152.151-.304.151-.38.076-.303.228-.455.38-.683.152-.152.227-.38.455-.607zM184.205 51.494c1.67-1.745 1.366 1.897 1.063 3.49 0 .987-.076 1.898-.152 2.884.076 4.325 1.67 6.981 4.932 8.043 1.29.456 5.311.304 6.374-.151l.91-.304c.38-.228.835-.38 1.138-.683.683-.607 3.643-3.87 4.25-4.553.682-.758 1.441-2.352 2.124-3.338.228-.38.38-.759.455-1.138 0-.38.076-.683.304-.987.228-.531.152.076.152-.455-.076-.455.076-.759 0-1.214-.076-.076-.076-.228-.076-.38-.304.304-.304.456-.455.683-.607.835-.607 1.366-1.214 2.277-.304.38-2.656 2.124-2.884 2.428-1.062 1.366-4.25 3.87-5.69 4.78-.456.152-.76.38-1.139.531-.759.38-3.263.91-3.414-.91-.152-1.366 0-4.705.455-6.298.38-1.442.531-2.276.834-3.718.304-1.138.152-1.973 0-3.111 0-.455-.075-.759-.303-1.138-.304-.532-.683-.987-1.366-1.139-.91-.151-1.82-.075-2.807-.227h-.76c-.682.152-1.213.455-1.593 1.138l-1.441 1.518c-1.67 1.82-2.504 2.352-4.25 4.476-1.441 1.67-1.593 1.897-3.11 3.34-.987.53-1.67-.456-.683-2.05.834-1.214.53-.986 1.138-2.276 1.366-2.883 2.276-5.69 2.352-8.498.076-.835.076-1.594-.304-2.2l-1.138-1.518c-.076-.152-.303-.38-.38-.38a3.796 3.796 0 01-2.048-1.366c-.152-.227-.53-.303-.91-.076 0 .228-.076.304-.076.532-.152.683-.455 1.365-.835 2.048-.38.91-.91 1.821-1.442 2.732-.834 1.442-1.82 3.035-2.655 4.629a92.785 92.785 0 00-2.504 5.69c-.683 1.366-1.214 2.732-1.746 4.174-1.062 2.807-1.669 5.615-2.276 8.346-.303 1.594.38 2.808 1.518 3.187.455.076.986.076 1.517.228.835.076 1.67 0 2.504.228.228.075.835.075 1.214-.228.456-.228.76-.38 1.063-.38.379 0 .607-.075.986-.455.607-.759 1.745-5.615 2.504-6.374.076-.227.304-.53.607-.758.38-.38.683-.91 1.062-1.518.38-.683.76-1.214 1.29-1.745.835-.835 1.67-1.745 2.353-2.656.834-1.214 2.124-2.352 3.11-3.49.456-.531 1.063-1.063 1.442-1.67zM216.681 51.874c-.455.91-4.628 6.601-4.628 4.628.379-2.124.53-2.2 1.365-4.249.456-1.29 1.139-2.504 1.67-3.794.683-1.366 1.441-2.731 2.2-4.097l1.442-2.656c.607-.986 1.29-1.973 1.897-3.11.228-.229.303-.608.531-.836.607-.455 1.062-1.138 1.518-1.897.758-1.365 2.352-3.338 3.49-4.4l1.062-1.139c.38-.455.76-.607 1.139-.53l.91.303.607.227c.455.228.607 1.063.91.38.456-1.138.152-2.504-.303-3.187-.683-3.035-6.07-10.168-9.409-7.588-1.366 1.062-2.58 2.428-3.718 4.022-1.821 2.352-3.414 5.16-4.932 8.043-1.29 2.276-2.352 4.552-3.49 6.905-2.428 7.587-8.423 22.308-5.919 31.337.076 1.139.455 2.05 1.062 2.58.304.38.683.683.91 1.063.229.075.304.303.456.303.531 0-.227-.076.38-.152.379-.076.758-.227.986 0h.455c.228-.303.304-.53.456-.683.53-.303.834-1.138.91-1.82.076-.532.304-1.063.38-1.518.151-.456.303-.835.379-1.29.076-.531.228-.91.455-1.366.531-.986 4.022-7.967 4.705-8.954.455-.683 1.062-1.29 1.593-1.897l3.87-4.78c.38-.38.683-.759.91-1.214.228-.455.607-.835.835-.986 1.138-1.897 4.553-4.25 6.222-1.442 0 .455 0 .91-.152 1.29-.151.531-.303.986-.53 1.517-.911 2.277-4.705 8.878-5.16 11.458-.911 7.208 5.994 6.677 8.498 4.325.227-.152 2.731-2.124 3.035-2.504.38-.683.91-1.29 1.366-1.897.38-.455 1.82-.91 2.049-1.517.151-.835 1.062-1.594 1.441-2.2.835-1.443.987-1.746 2.049-3.112.607-1.062 1.062-2.352-.152-1.366-.91.76-1.366 2.125-2.049 3.035-.834 1.063-1.593 1.063-2.428 2.05-.076.15-2.731 1.972-2.807 2.048-1.138.986-7.284 5.539-6.753.835.53-1.67 2.352-5.919 2.807-7.664.455-1.973 1.518-6.526.38-8.423-2.656-1.669-5.464-1.062-7.968 1.214-1.062 1.063-3.87 3.567-4.932 4.705zM241.873 51.267c-.076.227-.076.38-.304.455-1.138 1.366-2.124 2.808-2.807 4.477-.683 1.366-1.138 2.732-1.29 4.173-.152 1.442-.076 2.808.076 4.174l.683 2.048c.758 1.29 1.669 2.277 3.035 2.428.986.152 2.049.228 3.11-.076.228-.151.608-.303.76-.303.834-.228 1.517-.759 2.124-1.442.076-.227.304-.38.456-.455l.53-.38c.456-.303.76-.834 1.063-1.29.531-.682 1.062-1.365 1.442-2.276.53-1.29 1.214-2.504 1.441-3.794.076-.151.152-.227.152-.379s.228-.228.455-.228h.228c2.732 0 9.712.076 11.989-2.352.303-.303-.455-.455-.228-.835.076-.151.152-.455 0-.682l-.531.303-1.214.607c-3.642.607-5.084.076-8.802.304-.607 0-1.062-.532-.835-.987.228-.834 0-1.67.076-2.58 0-.076-.076-.683-.076-.986-.151-.607-.151-1.138-.227-1.821-.152-.759-.228-1.518-.456-2.2-.303-.532-.455-1.063-.682-1.67-.38-.986-.835-1.67-1.518-2.276-.531-.304-.986-.76-1.442-1.139-.38-.303-2.048-1.82-2.655-1.82-.835-.152-1.746-.076-2.429.379-.91.53-1.669.986-2.276 1.517-.303.076-.455.228-.531.38-.683 1.214-1.062 2.428-.835 3.718.228 1.745.607 3.414 1.442 4.78.076.076.076.152.076.228zm9.03-1.442c.91 5.084-3.112 6.602-5.312 2.276-1.897-2.048-3.87-5.994-1.821-8.877.531-.531 2.2-2.125 3.11-1.366.532.303.911.607 1.367.986.455.228.683.607.986.91.531.456.835 1.063 1.062 1.822.228.835.38 1.517.532 2.428.227.531.227 1.214.075 1.821zm-5.388 9.713c.986-1.29 1.821-1.973 3.566-1.215-.227.532-.38 1.215-.758 1.822-.76 1.745-1.67 3.49-2.96 4.856l-.303.227c-.076.076-.076.076-.152.076-.38-.151-.683-.53-.835-.91-.076-.152-.227-.228-.076-.38 0-.379 0-.834.076-1.214.456-1.366.607-2.048 1.442-3.262zm7.891-8.347v.076c-.075-.304-.075-.228 0-.076zm.076.152s-.076 0-.076-.076c0 .076.076.076.076.076zM273.21 62.345c-.758-.228-1.29-.91-1.745-1.593-.379-.456-.379-1.063-.075-1.821l.227-.683c.076-1.594 1.214-2.808 1.442-4.25 0-.075.076-.151.152-.151.607-.683 1.138-1.442 1.745-1.973 1.138-.987 2.276-1.821 3.49-2.732.531-.531 1.29-.986 1.67-1.593.379-.38.834-.835 1.214-.987.076-.076.303-.227.38-.38.91-.758 1.744-1.668 2.73-2.351.76-.38 1.367-1.063 2.05-1.67.303-.303.53-.758.682-.834.456-.152.304-.531.607-.76.76-.834 1.594-1.668 2.277-2.503.303-.228.53-.531.758-.986.76-1.366 1.518-2.808 2.05-4.326.682-2.124.682-4.021.303-5.69-.456-1.897-1.594-3.34-2.656-4.553-1.214-1.29-2.808-1.594-4.477-1.594-3.035-.075-5.843 1.442-8.422 3.794-1.139.987-2.05 2.125-2.656 3.567-.38.986 0 1.972.759 2.048l.986.304c.759.38 1.518.076 2.049-.91l.607-.532c1.897-1.67 3.718-3.263 5.918-3.49a14.648 14.648 0 012.58 0c.759 0 1.138.607 1.214 1.517 0 .76-.151 1.442-.53 2.2a12.524 12.524 0 01-2.201 2.96c-1.594 1.593-3.339 3.187-4.932 4.629-2.58 2.124-5.16 4.021-7.285 6.677-1.82 2.049-3.263 4.173-4.249 6.753-.835 1.973-1.366 3.87-1.29 5.767 0 1.138 0 2.2-.076 3.339-.076.91.076 1.669.38 2.276.379.683.91 1.366 1.365 1.897.607.683 1.214.986 2.2.986.38-.683.684-1.29 1.215-2.124zm-3.414 12.368c.304-.53.759-.91 1.138-1.366.683-1.062 1.442-2.124 2.277-2.959.683-.531.91-1.29 1.138-2.049.076-.379.152-.834-.076-1.062-.455-.38-1.062-.91-1.518-1.214-.303-.152-.91-.228-1.29.228-.91.91-1.82 1.897-2.58 3.262-.379.835-.834 1.746-.91 2.732 0 .455.076.835.304 1.138.455.304.834.76 1.517 1.29zm-.986-19.652c-.152-.531 0-1.138.227-1.821.38-1.214.987-2.353 1.442-3.643.531-1.214 1.214-2.352 2.2-3.338l3.415-3.794.759-.683.152.152-.228.38c-1.214 1.44-2.504 3.034-3.87 4.552 0 .152-.227.303-.38.303-.454.076-.606.38-.834.91-.38 1.063-.759 2.125-1.214 3.112-.455.91-.683 1.897-1.062 2.883-.152.456-.304.683-.456 1.063-.075 0-.075-.076-.151-.076z" stroke-width=".07588"/></g></svg>